<svg xmlns="http://www.w3.org/2000/svg" xml:space="preserve" width="645.888" height="232.686" viewBox="0 0 645.888 232.686"><g style="fill:#1a1b25"><path stroke-miterlimit="2" d="m501.25 473.27 3.77 11.696h1.376l4.981-13.76h-1.32l-4.321 11.916-3.826-11.916h-1.32l-3.826 11.916-4.32-11.916h-1.322l4.982 13.76h1.376zM529.25 467.63a.94.94 0 0 0 .963-.963.94.94 0 0 0-.963-.963.94.94 0 0 0-.963.963c0 .55.413.963.963.963zm-.605 3.578v13.76h1.238v-13.76zM552.84 483.95c-1.514 0-3.33-.826-4.54-1.954l-.826.826c1.32 1.238 3.522 2.229 5.366 2.229 2.34 0 4.623-1.431 4.623-3.715 0-4.156-8.063-3.523-8.063-6.99 0-1.431 1.569-2.175 2.945-2.175 1.568 0 2.807.633 3.742 1.514l.826-.826c-1.046-.99-2.614-1.788-4.568-1.788-1.79 0-4.183 1.045-4.183 3.275 0 4.375 8.063 3.797 8.063 6.99 0 1.568-1.596 2.614-3.385 2.614zM582.1 485.11c2.394 0 4.486-1.21 5.752-3.027v2.89h1.238v-19.265h-1.238v8.394c-1.266-1.816-3.358-3.027-5.752-3.027a7.01 7.01 0 0 0-7.018 7.017 7.01 7.01 0 0 0 7.018 7.018zm0-1.266c-3.22 0-5.78-2.56-5.78-5.752 0-3.22 2.56-5.779 5.78-5.779 3.192 0 5.752 2.56 5.752 5.78a5.73 5.73 0 0 1-5.752 5.751zM615.03 485.11c3.853 0 6.99-3.137 6.99-7.018s-3.137-7.017-6.99-7.017a7.01 7.01 0 0 0-7.018 7.017 7.01 7.01 0 0 0 7.018 7.018zm0-1.238c-3.22 0-5.78-2.56-5.78-5.78 0-3.192 2.56-5.751 5.78-5.751a5.73 5.73 0 0 1 5.752 5.751c0 3.22-2.56 5.78-5.752 5.78zM645.83 471.07c-3 0-5.421 2.422-5.421 5.421v8.48h1.238v-8.448c0-2.34 1.871-4.183 4.21-4.183 2.312 0 4.156 1.844 4.156 4.183v8.45h1.238v-8.449c0-2.339 1.872-4.183 4.211-4.183 2.312 0 4.156 1.844 4.156 4.183v8.45h1.238v-8.476c0-3-2.422-5.421-5.421-5.421a5.39 5.39 0 0 0-4.789 2.89 5.46 5.46 0 0 0-4.816-2.89zM679.42 483.87c0 .716.523 1.238 1.238 1.238h.138l-.44 1.459h.798l.688-2.284c.027-.11.055-.275.055-.413 0-.716-.523-1.238-1.239-1.238-.715 0-1.238.522-1.238 1.238zM715.96 485.11c2.394 0 4.486-1.21 5.752-3.027v2.89h1.238v-6.88c0-3.88-3.137-7.018-6.99-7.018a7.01 7.01 0 0 0-7.018 7.017 7.01 7.01 0 0 0 7.018 7.018zm0-1.238c-3.22 0-5.78-2.56-5.78-5.78 0-3.192 2.56-5.751 5.78-5.751a5.73 5.73 0 0 1 5.752 5.751c0 3.22-2.56 5.78-5.752 5.78zM747.09 471.07c-3 0-5.421 2.422-5.421 5.421v8.48h1.238v-8.448c0-2.34 1.871-4.183 4.21-4.183 2.312 0 4.156 1.844 4.156 4.183v8.45h1.238v-8.449c0-2.339 1.872-4.183 4.211-4.183 2.312 0 4.156 1.844 4.156 4.183v8.45h1.238v-8.476c0-3-2.422-5.421-5.421-5.421a5.39 5.39 0 0 0-4.789 2.89 5.46 5.46 0 0 0-4.816-2.89zM794.89 478.09a7.01 7.01 0 0 0-7.018-7.018c-3.852 0-6.99 3.138-6.99 7.018v12.384h1.239v-8.394c1.266 1.817 3.357 3.028 5.751 3.028a7.01 7.01 0 0 0 7.018-7.018zm-7.018-5.752c3.22 0 5.78 2.56 5.78 5.752 0 3.22-2.56 5.78-5.78 5.78-3.192 0-5.751-2.56-5.751-5.78a5.73 5.73 0 0 1 5.751-5.752zM813.84 465.71v19.264h1.238V465.71ZM835.36 467.63a.94.94 0 0 0 .963-.963.94.94 0 0 0-.963-.963.94.94 0 0 0-.963.963c0 .55.413.963.963.963zm-.605 3.578v13.76h1.238v-13.76zM855.71 470.66v.55h-1.926v1.101h1.926v12.66h1.238v-12.659h3.853v-1.1h-3.853v-.523a3.83 3.83 0 0 1 3.853-3.852v-1.266a5.097 5.097 0 0 0-5.091 5.09zM879.34 467.63a.94.94 0 0 0 .963-.963.94.94 0 0 0-.963-.963.94.94 0 0 0-.963.963c0 .55.413.963.963.963zm-.605 3.578v13.76h1.238v-13.76zM899.18 478.09h12.769c0-3.88-3.137-7.018-6.99-7.018a7.01 7.01 0 0 0-7.018 7.018 7.01 7.01 0 0 0 7.018 7.018 7 7 0 0 0 6.22-3.798h-1.432a5.73 5.73 0 0 1-4.788 2.532c-3.22 0-5.78-2.56-5.78-5.752zm11.421-1.1H899.29c.495-2.698 2.835-4.68 5.67-4.68a5.71 5.71 0 0 1 5.64 4.68zM936.86 485.11c2.394 0 4.486-1.21 5.752-3.027v2.89h1.238v-19.265h-1.238v8.394c-1.266-1.816-3.358-3.027-5.752-3.027a7.01 7.01 0 0 0-7.018 7.017 7.01 7.01 0 0 0 7.018 7.018zm0-1.266c-3.22 0-5.78-2.56-5.78-5.752 0-3.22 2.56-5.779 5.78-5.779 3.192 0 5.752 2.56 5.752 5.78a5.73 5.73 0 0 1-5.752 5.751z" style="font-variant-ligatures:none;stroke:#1a1b25;stroke-width:1.978;stroke-miterlimit:2" transform="translate(-298.951 -277.892)"/><path stroke-miterlimit="2" d="M323.27 329.13h4.176c.648 0 1.008-.36 1.008-1.008v-23.04c0-3.888 2.448-6.264 6.192-6.264h2.592c.576 0 .936-.36.936-.936v-3.888c0-.648-.36-1.008-.936-1.008h-2.664c-7.272 0-12.312 4.824-12.312 12.6v22.536c0 .648.36 1.008 1.008 1.008zM357.81 329.85c6.48 0 11.016-4.464 11.376-11.16 0-.576-.36-.936-.936-.936h-4.248c-.576 0-.936.288-1.008.936-.216 3.168-2.16 5.328-5.112 5.328-3.312 0-5.256-2.304-5.256-5.616v-3.744h5.328c6.84 0 11.448-4.536 11.448-10.872 0-6.624-4.752-11.448-11.52-11.376-6.912 0-11.376 4.752-11.448 11.592v14.112c0 7.056 4.608 11.736 11.376 11.736zm-5.184-20.808v-5.112c0-3.456 1.872-5.688 5.256-5.688 3.312 0 5.328 2.232 5.328 5.688 0 3.024-1.944 5.112-5.256 5.112zM391.62 329.85c6.912 0 11.232-4.752 11.232-11.376v-14.472c0-6.768-4.392-11.664-11.232-11.664-6.408 0-10.656 4.464-11.088 10.728 0 .576.36 1.008.936 1.008h4.176c.648 0 .936-.216 1.008-.864.216-2.952 1.872-4.968 4.896-4.968 3.24 0 5.184 2.232 5.184 5.472v3.96h-5.4c-6.768 0-11.376 4.608-11.376 10.584 0 6.768 4.68 11.592 11.664 11.592zm-.072-5.904c-3.384 0-5.4-2.232-5.4-5.688 0-2.808 2.016-5.04 5.4-5.04h5.184v5.256c0 3.312-1.872 5.472-5.184 5.472zM416.5 329.13h4.176c.648 0 1.008-.36 1.008-1.008v-48.456c0-.576-.36-.936-1.008-.936H416.5c-.648 0-1.008.36-1.008.936v48.456c0 .648.36 1.008 1.008 1.008zM477.05 292.33c-3.384 0-6.12 1.8-7.776 4.392-1.656-2.592-4.464-4.392-7.776-4.392-6.552 0-10.872 4.896-10.872 11.736v24.048c0 .648.36 1.008 1.008 1.008h4.104c.648 0 1.008-.36 1.008-1.008V303.85c0-3.384 1.728-5.616 4.752-5.616s4.68 2.232 4.68 5.616v24.264c0 .648.36 1.008 1.008 1.008h4.176c.576 0 .936-.36.936-1.008V303.85c0-3.384 1.728-5.616 4.752-5.616s4.68 2.232 4.68 5.616v24.264c0 .648.36 1.008 1.008 1.008h4.176c.576 0 .936-.36.936-1.008v-24.05c0-6.84-4.248-11.736-10.8-11.736zM504.08 288.59c2.088 0 3.744-1.728 3.744-3.672 0-2.16-1.656-3.744-3.744-3.744-2.16 0-3.672 1.584-3.672 3.744 0 2.088 1.512 3.672 3.672 3.672zm-2.088 40.536h4.176c.648 0 1.008-.36 1.008-1.008v-34.056c0-.576-.36-.936-1.008-.936h-4.176c-.648 0-1.008.36-1.008.936v34.056c0 .648.36 1.008 1.008 1.008zM521.09 329.13h4.176c.648 0 1.008-.36 1.008-1.008v-24.264c0-3.384 1.872-5.688 5.04-5.688s5.04 2.304 5.04 5.688v24.264c0 .648.36 1.008 1.008 1.008h4.176c.648 0 1.008-.36 1.008-1.008v-24.05c0-6.84-4.536-11.736-11.232-11.736s-11.232 4.896-11.232 11.736v24.048c0 .648.36 1.008 1.008 1.008zM576.62 278.73h-4.176c-.648 0-1.008.36-1.008.936v15.336c-1.44-1.656-3.456-2.664-5.976-2.664-6.48 0-10.728 4.896-10.728 11.736v14.112c0 6.84 4.536 11.736 11.448 11.736 6.84 0 11.448-4.896 11.448-11.736v-38.52c0-.576-.36-.936-1.008-.936zm-5.184 39.672c0 3.384-1.944 5.616-5.256 5.616s-5.328-2.232-5.328-5.616v-14.544c0-3.384 2.016-5.616 5.328-5.616s5.256 2.232 5.256 5.616zM601.19 329.92c6.696 0 11.16-4.464 11.16-10.296 0-12.096-16.632-10.152-16.632-17.064 0-2.592 1.944-4.392 4.896-4.392 3.096 0 4.752 2.016 4.968 4.824.072.576.432.936 1.008.936h4.248c.72 0 .936-.504.936-1.008-.216-5.616-3.6-10.584-11.304-10.584-6.48 0-10.872 4.32-10.872 10.08 0 11.808 16.56 9.864 16.56 17.136 0 2.592-1.728 4.464-5.04 4.464-3.744 0-5.472-2.016-5.76-5.688-.072-.72-.504-.936-1.008-.936h-4.176c-.792 0-1.008.504-1.008 1.08.216 6.336 4.536 11.448 12.024 11.448zM622.26 323.58l-.72 12.24c0 .648.36 1.008.936 1.008h2.304c.576 0 .936-.288 1.008-.864l2.376-12.24c.072-.648-.288-1.08-.936-1.08h-3.96c-.576 0-1.008.288-1.008.936zM664.66 329.85c6.912 0 11.232-4.752 11.232-11.376v-14.472c0-6.768-4.392-11.664-11.232-11.664-6.408 0-10.656 4.464-11.088 10.728 0 .576.36 1.008.936 1.008h4.176c.648 0 .936-.216 1.008-.864.216-2.952 1.872-4.968 4.896-4.968 3.24 0 5.184 2.232 5.184 5.472v3.96h-5.4c-6.768 0-11.376 4.608-11.376 10.584 0 6.768 4.68 11.592 11.664 11.592zm-.072-5.904c-3.384 0-5.4-2.232-5.4-5.688 0-2.808 2.016-5.04 5.4-5.04h5.184v5.256c0 3.312-1.872 5.472-5.184 5.472zM688.97 329.13h4.176c.648 0 1.008-.36 1.008-1.008v-23.04c0-3.888 2.448-6.264 6.192-6.264h2.592c.576 0 .936-.36.936-.936v-3.888c0-.648-.36-1.008-.936-1.008h-2.664c-7.272 0-12.312 4.824-12.312 12.6v22.536c0 .648.36 1.008 1.008 1.008zM729.23 323.51h-.792c-3.672 0-5.544-2.304-5.544-6.84v-17.928h5.544c.576 0 .936-.36.936-.936v-3.744c0-.576-.36-.936-.936-.936h-5.544v-9.288c0-.648-.36-1.008-.936-1.008h-4.176c-.648 0-1.008.36-1.008 1.008v9.288h-4.032c-.576 0-.936.36-.936.936v3.744c0 .576.36.936.936.936h4.032v17.856c0 7.92 4.248 12.744 11.376 12.744h1.08c.648 0 1.008-.36 1.008-.936v-3.96c0-.576-.36-.936-1.008-.936zM744.64 288.59c2.088 0 3.744-1.728 3.744-3.672 0-2.16-1.656-3.744-3.744-3.744-2.16 0-3.672 1.584-3.672 3.744 0 2.088 1.512 3.672 3.672 3.672zm-2.088 40.536h4.176c.648 0 1.008-.36 1.008-1.008v-34.056c0-.576-.36-.936-1.008-.936h-4.176c-.648 0-1.008.36-1.008.936v34.056c0 .648.36 1.008 1.008 1.008zM776.7 293.13h-7.128v-1.872c0-4.752 2.304-6.984 6.12-6.984.576 0 .936-.36.936-1.008v-3.816c0-.648-.36-1.008-.936-1.008-7.344 0-12.312 4.896-12.312 13.176v1.512h-4.104c-.576 0-.936.36-.936.936v3.744c0 .576.36.936.936.936h4.104v29.376c0 .648.36 1.008 1.008 1.008h4.176c.576 0 1.008-.36 1.008-1.008v-29.376h7.128c.576 0 .936-.36.936-.936v-3.744c0-.576-.36-.936-.936-.936zM791.59 288.59c2.088 0 3.744-1.728 3.744-3.672 0-2.16-1.656-3.744-3.744-3.744-2.16 0-3.672 1.584-3.672 3.744 0 2.088 1.512 3.672 3.672 3.672zm-2.088 40.536h4.176c.648 0 1.008-.36 1.008-1.008v-34.056c0-.576-.36-.936-1.008-.936h-4.176c-.648 0-1.008.36-1.008.936v34.056c0 .648.36 1.008 1.008 1.008zM817.91 329.92c6.552 0 10.944-4.68 11.376-11.448 0-.72-.36-1.08-.936-1.08h-4.32c-.576 0-.864.288-.936 1.008-.288 3.528-2.232 5.616-5.256 5.616-3.24 0-5.184-2.232-5.184-5.616v-14.544c0-3.384 1.944-5.616 5.112-5.616 2.952 0 4.752 1.872 5.04 5.112.072.648.432.936 1.008.936h4.248c.648 0 1.008-.36.936-.936-.432-6.552-4.752-11.016-11.232-11.016-6.768 0-11.304 4.896-11.304 11.736v14.112c0 6.84 4.608 11.736 11.448 11.736zM843.19 288.59c2.088 0 3.744-1.728 3.744-3.672 0-2.16-1.656-3.744-3.744-3.744-2.16 0-3.672 1.584-3.672 3.744 0 2.088 1.512 3.672 3.672 3.672zm-2.088 40.536h4.176c.648 0 1.008-.36 1.008-1.008v-34.056c0-.576-.36-.936-1.008-.936h-4.176c-.648 0-1.008.36-1.008.936v34.056c0 .648.36 1.008 1.008 1.008zM869.78 329.85c6.912 0 11.232-4.752 11.232-11.376v-14.472c0-6.768-4.392-11.664-11.232-11.664-6.408 0-10.656 4.464-11.088 10.728 0 .576.36 1.008.936 1.008h4.176c.648 0 .936-.216 1.008-.864.216-2.952 1.872-4.968 4.896-4.968 3.24 0 5.184 2.232 5.184 5.472v3.96h-5.4c-6.768 0-11.376 4.608-11.376 10.584 0 6.768 4.68 11.592 11.664 11.592zm-.072-5.904c-3.384 0-5.4-2.232-5.4-5.688 0-2.808 2.016-5.04 5.4-5.04h5.184v5.256c0 3.312-1.872 5.472-5.184 5.472zM894.67 329.13h4.176c.648 0 1.008-.36 1.008-1.008v-48.456c0-.576-.36-.936-1.008-.936h-4.176c-.648 0-1.008.36-1.008.936v48.456c0 .648.36 1.008 1.008 1.008zM570.14 389.44c2.088 0 3.744-1.728 3.744-3.672 0-2.16-1.656-3.744-3.744-3.744-2.16 0-3.672 1.584-3.672 3.744 0 2.088 1.512 3.672 3.672 3.672zm-2.088 40.536h4.176c.648 0 1.008-.36 1.008-1.008v-34.056c0-.576-.36-.936-1.008-.936h-4.176c-.648 0-1.008.36-1.008.936v34.056c0 .648.36 1.008 1.008 1.008zM587.15 429.98h4.176c.648 0 1.008-.36 1.008-1.008v-24.264c0-3.384 1.872-5.688 5.04-5.688s5.04 2.304 5.04 5.688v24.264c0 .648.36 1.008 1.008 1.008h4.176c.648 0 1.008-.36 1.008-1.008v-24.048c0-6.84-4.536-11.736-11.232-11.736s-11.232 4.896-11.232 11.736v24.048c0 .648.36 1.008 1.008 1.008zM635.71 424.36h-.792c-3.672 0-5.544-2.304-5.544-6.84v-17.928h5.544c.576 0 .936-.36.936-.936v-3.744c0-.576-.36-.936-.936-.936h-5.544v-9.288c0-.648-.36-1.008-.936-1.008h-4.176c-.648 0-1.008.36-1.008 1.008v9.288h-4.032c-.576 0-.936.36-.936.936v3.744c0 .576.36.936.936.936h4.032v17.856c0 7.92 4.248 12.744 11.376 12.744h1.08c.648 0 1.008-.36 1.008-.936v-3.96c0-.576-.36-.936-1.008-.936zM657.82 430.7c6.48 0 11.016-4.464 11.376-11.16 0-.576-.36-.936-.936-.936h-4.248c-.576 0-.936.288-1.008.936-.216 3.168-2.16 5.328-5.112 5.328-3.312 0-5.256-2.304-5.256-5.616v-3.744h5.328c6.84 0 11.448-4.536 11.448-10.872 0-6.624-4.752-11.448-11.52-11.376-6.912 0-11.376 4.752-11.448 11.592v14.112c0 7.056 4.608 11.736 11.376 11.736zm-5.184-20.808v-5.112c0-3.456 1.872-5.688 5.256-5.688 3.312 0 5.328 2.232 5.328 5.688 0 3.024-1.944 5.112-5.256 5.112zM682.35 429.98h4.176c.648 0 1.008-.36 1.008-1.008v-48.456c0-.576-.36-.936-1.008-.936h-4.176c-.648 0-1.008.36-1.008.936v48.456c0 .648.36 1.008 1.008 1.008zM702.46 429.98h4.176c.648 0 1.008-.36 1.008-1.008v-48.456c0-.576-.36-.936-1.008-.936h-4.176c-.648 0-1.008.36-1.008.936v48.456c0 .648.36 1.008 1.008 1.008zM724.65 389.44c2.088 0 3.744-1.728 3.744-3.672 0-2.16-1.656-3.744-3.744-3.744-2.16 0-3.672 1.584-3.672 3.744 0 2.088 1.512 3.672 3.672 3.672zm-2.088 40.536h4.176c.648 0 1.008-.36 1.008-1.008v-34.056c0-.576-.36-.936-1.008-.936h-4.176c-.648 0-1.008.36-1.008.936v34.056c0 .648.36 1.008 1.008 1.008zM751.04 393.18c-6.912 0-11.52 4.896-11.52 11.736V417.3c0 6.84 4.608 11.736 11.016 11.736 2.232 0 4.248-.936 5.76-2.52v7.128c0 3.528-1.944 5.616-5.256 5.616-3.096 0-5.04-2.088-5.256-5.688-.072-.72-.432-1.008-1.008-1.008h-4.248c-.648 0-1.008.36-.936 1.008.288 7.056 4.752 11.592 11.448 11.592 6.984 0 11.448-4.608 11.448-11.736v-28.512c0-6.84-4.608-11.736-11.448-11.736zm0 30.024c-3.312 0-5.328-2.304-5.328-5.688V404.7c0-3.384 2.016-5.616 5.328-5.616s5.256 2.232 5.256 5.616v12.816c0 3.384-1.944 5.688-5.256 5.688zM785.9 430.7c6.48 0 11.016-4.464 11.376-11.16 0-.576-.36-.936-.936-.936h-4.248c-.576 0-.936.288-1.008.936-.216 3.168-2.16 5.328-5.112 5.328-3.312 0-5.256-2.304-5.256-5.616v-3.744h5.328c6.84 0 11.448-4.536 11.448-10.872 0-6.624-4.752-11.448-11.52-11.376-6.912 0-11.376 4.752-11.448 11.592v14.112c0 7.056 4.608 11.736 11.376 11.736zm-5.184-20.808v-5.112c0-3.456 1.872-5.688 5.256-5.688 3.312 0 5.328 2.232 5.328 5.688 0 3.024-1.944 5.112-5.256 5.112zM809.85 429.98h4.176c.648 0 1.008-.36 1.008-1.008v-24.264c0-3.384 1.872-5.688 5.04-5.688s5.04 2.304 5.04 5.688v24.264c0 .648.36 1.008 1.008 1.008h4.176c.648 0 1.008-.36 1.008-1.008v-24.048c0-6.84-4.536-11.736-11.232-11.736s-11.232 4.896-11.232 11.736v24.048c0 .648.36 1.008 1.008 1.008zM854.87 430.77c6.552 0 10.944-4.68 11.376-11.448 0-.72-.36-1.08-.936-1.08h-4.32c-.576 0-.864.288-.936 1.008-.288 3.528-2.232 5.616-5.256 5.616-3.24 0-5.184-2.232-5.184-5.616v-14.544c0-3.384 1.944-5.616 5.112-5.616 2.952 0 4.752 1.872 5.04 5.112.072.648.432.936 1.008.936h4.248c.648 0 1.008-.36.936-.936-.432-6.552-4.752-11.016-11.232-11.016-6.768 0-11.304 4.896-11.304 11.736v14.112c0 6.84 4.608 11.736 11.448 11.736zM888.26 430.7c6.48 0 11.016-4.464 11.376-11.16 0-.576-.36-.936-.936-.936h-4.248c-.576 0-.936.288-1.008.936-.216 3.168-2.16 5.328-5.112 5.328-3.312 0-5.256-2.304-5.256-5.616v-3.744h5.328c6.84 0 11.448-4.536 11.448-10.872 0-6.624-4.752-11.448-11.52-11.376-6.912 0-11.376 4.752-11.448 11.592v14.112c0 7.056 4.608 11.736 11.376 11.736zm-5.184-20.808v-5.112c0-3.456 1.872-5.688 5.256-5.688 3.312 0 5.328 2.232 5.328 5.688 0 3.024-1.944 5.112-5.256 5.112z" style="font-variant-ligatures:none;stroke:#1a1b25;stroke-width:1.1;stroke-miterlimit:2" transform="translate(-298.951 -277.892)"/><path d="M417.14 401.76c-.335-.012-.8 0-1.033.026a10 10 0 0 0-.822.135c-.218.048-.588.147-.821.22a9 9 0 0 0-.916.362c-.271.127-.724.383-1.007.57-.284.187-.698.497-.921.689a8 8 0 0 0-.776.789c-.203.242-.506.642-.672.89a10 10 0 0 0-.563.99c-.144.296-.344.79-.445 1.098-.1.308-.231.794-.29 1.078-.06.285-.134.86-.168 1.277a8 8 0 0 0 0 1.5c.035.408.112.995.171 1.305s.202.852.317 1.203.363.949.554 1.328c.19.379.506.914.702 1.19a9.694 9.694 0 0 0 1.9 1.923c.237.169.655.424.93.57.274.143.664.323.865.4.202.076.606.194.9.264.292.07.741.149.998.176s.477.059.489.071c.011.012-.66 6.197-1.494 13.745a4329 4329 0 0 1-1.528 13.74c-.007.007-.499-.3-1.093-.685-.594-.384-1.545-.989-2.114-1.344-.568-.355-1.546-.956-2.173-1.334a176.774 176.774 0 0 0-5.565-3.183c-.539-.292-1.564-.837-2.279-1.21-.714-.374-1.942-.995-2.73-1.38-.786-.384-1.823-.882-2.304-1.107s-1.328-.613-1.882-.86c-.554-.25-1.58-.698-2.282-.997a140 140 0 0 0-4.952-1.988c-.481-.18-1.209-.447-1.617-.593a129.985 129.985 0 0 0-4.565-1.528c-.666-.207-1.872-.564-2.68-.794-.807-.23-2.13-.585-2.941-.787a122 122 0 0 0-2.56-.609c-.597-.132-1.575-.338-2.173-.457-.597-.119-1.637-.31-2.31-.424a105 105 0 0 0-2.359-.367 93 93 0 0 0-2.327-.292 90 90 0 0 0-2.2-.212c-.553-.045-1.46-.11-2.013-.146-.568-.037-2.129-.066-3.578-.067-1.517 0-2.972.027-3.55.067-.54.036-1.374.102-1.856.145-.48.044-1.339.139-1.908.211-.568.073-1.456.203-1.972.29-.517.087-1.292.231-1.723.32-.43.088-1.248.278-1.816.42-.569.143-1.43.379-1.915.525s-1.296.414-1.802.594-1.29.482-1.742.669-1.15.496-1.551.687c-.4.191-1.045.513-1.431.717s-.964.526-1.285.716a33.452 33.452 0 0 0-2.703 1.804c-.35.263-.946.735-1.325 1.05a33 33 0 0 0-1.724 1.61c-.57.57-1.283 1.333-1.586 1.696-.302.363-.745.925-.985 1.247-.24.324-.636.888-.88 1.254-.243.367-.608.95-.81 1.297l-.368.631-.508-.016c-.28-.009-5.074.223-10.657.516-5.582.291-10.244.557-10.361.59s-.31.114-.428.183a2.3 2.3 0 0 0-.442.37c-.125.136-.273.35-.33.477a2.8 2.8 0 0 0-.152.62c-.03.234-.05 5.631-.052 13.744 0 8.97.017 13.504.054 13.806.035.287.11.566.208.776.083.18.252.437.375.57.129.14.37.314.57.413.293.144.406.17.722.17.293 0 .442-.032.678-.14.167-.078.4-.244.518-.37.118-.125 4.892-6.584 10.608-14.353s10.455-14.255 10.53-14.416a2.2 2.2 0 0 0 .165-.636c.017-.19.012-.464-.008-.609a2.6 2.6 0 0 0-.209-.607l-.168-.344.182-.342c.099-.187.38-.653.622-1.035.243-.382.62-.949.838-1.26.218-.31.615-.837.883-1.173.268-.335.773-.926 1.123-1.312.35-.387.982-1.025 1.405-1.417a34 34 0 0 1 1.557-1.346c.434-.348 1.027-.801 1.317-1.007a33 33 0 0 1 2.375-1.512c.307-.179.987-.54 1.51-.802a43 43 0 0 1 1.456-.699c.277-.122.801-.34 1.166-.487s1.06-.405 1.546-.575a43 43 0 0 1 1.696-.548c.446-.13 1.146-.322 1.554-.423a70 70 0 0 1 1.463-.346 47 47 0 0 1 1.802-.345 67 67 0 0 1 1.85-.29c.422-.059 1.269-.154 1.881-.213a91 91 0 0 1 2.093-.174c.577-.039 2.018-.066 3.498-.065 1.385 0 2.983.03 3.551.066.568.035 1.463.1 1.988.144s1.49.14 2.146.214c.656.072 1.622.192 2.147.265s1.454.216 2.067.318c.612.101 1.613.28 2.226.398.612.117 1.709.345 2.438.505.728.16 1.945.447 2.703.638a113 113 0 0 1 4.849 1.35 130 130 0 0 1 4.717 1.558c.598.212 1.623.588 2.279.835s1.681.647 2.279.887 1.647.675 2.332.965c.685.291 1.854.804 2.597 1.14s2.162 1.001 3.153 1.48c.991.477 2.482 1.223 3.313 1.657.83.433 1.892.996 2.358 1.25s1.253.69 1.749.967a156.605 156.605 0 0 1 4.531 2.654c.598.365 1.576.973 2.173 1.352.598.378 1.498.958 2.001 1.287.807.528.914.616.914.74 0 .079-.298 2.852-.663 6.164s-.678 6.126-.696 6.254l-.033.233-.51-.034c-.28-.018-.986-.069-1.57-.112-.582-.043-1.894-.126-2.914-.185s-2.44-.13-3.154-.16c-.713-.03-2.133-.079-3.153-.107-1.02-.029-3.262-.052-4.982-.052s-3.95.023-4.955.053c-1.006.029-2.568.089-3.472.132s-2.179.116-2.835.16-1.777.128-2.491.187c-.714.06-1.763.155-2.332.212a136.325 136.325 0 0 0-5.22.634c-.817.117-2.104.319-2.862.449-.758.129-1.903.341-2.544.47-.642.13-1.452.3-1.802.377s-1.2.281-1.888.452a80 80 0 0 0-2.2.581c-.521.149-1.554.473-2.295.721-.742.248-1.793.627-2.337.843-.543.216-1.308.539-1.7.718-.39.178-1.008.48-1.372.673-.365.192-.917.5-1.228.685a20.071 20.071 0 0 0-1.916 1.294c-.203.161-.28.194-.371.16l-6.688-2.547c-3.614-1.376-6.594-2.524-6.622-2.55-.028-.027-.106-.048-.175-.048a.7.7 0 0 0-.267.074 1.7 1.7 0 0 0-.322.261c-.16.167-.55 1.231-3.754 10.247-1.966 5.534-3.602 10.183-3.634 10.333a1.16 1.16 0 0 0 .005.56c.039.17.13.367.228.484.089.108.261.25.382.314.166.087.312.116.591.116h.371l11.686-6.827a4740 4740 0 0 0 11.886-6.956 1.6 1.6 0 0 0 .355-.343c.086-.118.182-.343.214-.5a1 1 0 0 0-.002-.512 1.4 1.4 0 0 0-.19-.402 1.1 1.1 0 0 0-.327-.269c-.108-.053-.631-.26-1.163-.458-.532-.2-.967-.377-.967-.394s.285-.216.633-.443.904-.565 1.236-.75c.333-.187.817-.445 1.077-.575s.782-.374 1.161-.542a54 54 0 0 1 1.475-.618 51 51 0 0 1 2.12-.76 68 68 0 0 1 2.261-.71c.51-.146 1.452-.396 2.094-.555s1.655-.4 2.252-.531a91 91 0 0 1 2.359-.478c.7-.132 1.63-.298 2.067-.371s1.284-.204 1.881-.293a144 144 0 0 1 4.32-.558c.408-.045 1.362-.14 2.12-.212.757-.072 2.021-.178 2.808-.237a189 189 0 0 1 5.645-.323c.685-.031 3.022-.07 5.194-.087 2.494-.02 4.788-.008 6.227.03 1.253.034 3.03.097 3.948.14.918.042 2.1.102 2.624.131.525.03 1.8.115 2.835.188 1.035.074 2.06.154 2.28.177.326.036 1.876.568 8.665 2.97 4.547 1.608 8.283 2.941 8.301 2.962.02.02-.124 2.143-.317 4.72l-.352 4.682-.398-.033c-.218-.018-1.09-.08-1.935-.137a316 316 0 0 0-2.994-.184c-.801-.045-2.244-.116-3.206-.159s-2.805-.105-4.095-.14c-1.483-.038-4.036-.05-6.943-.032-2.942.02-5.227.059-6.346.112-.962.045-2.178.107-2.703.138a151.32 151.32 0 0 0-4.664.348 114.912 114.912 0 0 0-4.637.532c-.743.1-1.852.267-2.465.37s-1.59.281-2.173.398-1.491.317-2.018.444a48 48 0 0 0-1.696.446c-.406.118-1.083.33-1.506.473-.422.143-1.034.368-1.358.502-.324.133-.873.384-1.219.558s-.887.485-1.2.693a9 9 0 0 0-1.027.814c-.25.24-.575.62-.721.844l-.266.409-.616-.52a611 611 0 0 1-2.391-2.04c-.976-.837-1.847-1.56-1.934-1.606s-.32-.096-.516-.11a2 2 0 0 0-.589.039 1.8 1.8 0 0 0-.489.26c-.141.107-.322.29-.401.405l-6.198 9.036c-3.33 4.853-6.121 8.908-6.203 9.01a2.3 2.3 0 0 0-.255.428 2.3 2.3 0 0 0-.14.535c-.025.204-.009.383.053.596q.09.304.302.536c.118.127.32.283.45.346.189.091.307.11.574.093l.336-.02 11.255-4.687 11.255-4.687.428-.425c.309-.307.48-.529.607-.79.15-.31.181-.435.198-.822l.02-.457-.15-.292-.15-.291-2.146-1.791c-1.18-.985-2.154-1.827-2.164-1.872-.01-.044.05-.216.132-.382.09-.18.312-.464.548-.7.22-.22.623-.55.9-.735.275-.184.782-.475 1.125-.647s.916-.43 1.274-.571c.357-.142 1.02-.379 1.471-.526a42 42 0 0 1 1.515-.457 53 53 0 0 1 1.59-.398 69 69 0 0 1 1.983-.42 82 82 0 0 1 5.061-.798c.7-.089 1.726-.208 2.28-.265s1.424-.141 1.934-.187a170.169 170.169 0 0 1 4.028-.294c.51-.03 1.714-.092 2.676-.137 1.131-.055 3.375-.094 6.349-.113 2.912-.018 5.45-.007 6.916.032 1.274.034 3.116.097 4.092.14.977.042 2.42.114 3.207.158a201.493 201.493 0 0 1 4.796.317l.98.08 6.753 2.676c3.714 1.471 6.762 2.685 6.773 2.696s-.1 2.472-.247 5.47c-.146 2.997-.249 5.464-.227 5.483s2.52.493 5.551 1.055l5.657 1.048.145.027.014 1.828.014 1.828 5.564 1.722 5.565 1.722.257.257c.142.142.333.282.425.311s4.186 1.12 9.097 2.422c4.912 1.301 8.993 2.378 9.07 2.392a.27.27 0 0 0 .253-.087c.082-.082.11-.178.11-.363a.86.86 0 0 0-.103-.421c-.057-.093-2.278-2.454-4.936-5.247s-5.098-5.35-5.422-5.681c-.34-.35-.677-.644-.8-.701a1.1 1.1 0 0 0-.371-.1c-.13 0-.446.234-1.723 1.279-.86.703-2.461 2.027-3.559 2.941-1.097.914-2.024 1.663-2.06 1.663s-2.19-.658-4.789-1.46a2526 2526 0 0 1-4.974-1.541l-.251-.081-.014-1.89-.014-1.889-5.671-1.054c-3.119-.58-5.677-1.06-5.684-1.066s.093-2.203.223-4.883.25-5.039.266-5.243.293-2.875.614-5.936c.322-3.06.595-5.615.608-5.677l.023-.112.73-.028c.49-.018.863-.063 1.136-.136a8 8 0 0 0 .8-.272c.215-.09.58-.286.811-.437.231-.15.649-.5.928-.78.28-.279.635-.696.79-.927a9 9 0 0 0 .508-.9c.125-.266.286-.663.358-.883s.174-.602.228-.848c.079-.356.098-.663.096-1.507l-.003-1.06-.14-.519a7.4 7.4 0 0 0-.378-1.019 8 8 0 0 0-.519-.912 7 7 0 0 0-.707-.835 7 7 0 0 0-.821-.698c-.218-.15-.59-.37-.826-.488a8 8 0 0 0-.9-.375 8 8 0 0 0-.944-.24 8 8 0 0 0-1.192-.08c-.431 0-.871.032-1.093.078a9 9 0 0 0-.715.19 7 7 0 0 0-.769.323c-.233.117-.575.32-.759.452-.184.13-.49.383-.68.56-.188.177-.496.525-.683.774-.187.25-.457.693-.601.985a8 8 0 0 0-.398.966c-.074.24-.175.716-.225 1.06-.077.537-.081.743-.031 1.498.04.602.1 1.039.191 1.395.074.284.24.743.371 1.019.13.276.364.686.52.911.155.225.46.591.679.812s.576.529.795.683.6.382.848.507.637.294.866.375l.416.147-.028.19c-.015.105-.273 2.51-.573 5.347-.3 2.836-.56 5.179-.576 5.205-.016.027-2.89-1.084-6.386-2.47a2048 2048 0 0 1-6.367-2.529c-.006-.006.143-2.038.33-4.515s.366-4.85.397-5.273c.03-.423.244-4.334.475-8.692s.434-8.09.45-8.294l.031-.371.938-.001c.569 0 1.063-.028 1.256-.07.174-.038.52-.13.768-.203s.646-.227.884-.34.643-.348.9-.52c.258-.173.666-.497.907-.722s.628-.661.86-.97c.236-.314.549-.819.71-1.147.16-.322.35-.784.426-1.027s.175-.673.221-.954c.062-.376.077-.716.056-1.28a8 8 0 0 0-.134-1.246 10 10 0 0 0-.274-.954 8 8 0 0 0-.302-.742 11 11 0 0 0-.321-.583 9 9 0 0 0-.521-.749 8 8 0 0 0-.747-.813 8.4 8.4 0 0 0-.89-.699 9 9 0 0 0-.9-.519 9 9 0 0 0-.843-.341c-.23-.077-.66-.19-.954-.253-.392-.083-.733-.114-1.278-.118-.533-.003-.867.024-1.19.094-.245.053-.627.156-.847.227s-.644.246-.942.388a10 10 0 0 0-1.034.592c-.27.185-.743.586-1.05.892-.353.351-.69.754-.913 1.09-.195.294-.436.711-.535.928-.1.216-.241.575-.315.797a8 8 0 0 0-.225.949c-.07.418-.084.718-.06 1.292.017.44.073.945.135 1.225.058.262.182.692.274.954s.229.596.302.742.217.408.321.583c.103.175.337.509.519.742s.458.545.614.694.424.382.596.52c.172.137.51.365.749.507.24.141.6.327.8.413s.444.187.543.226l.18.07-.03.455c-.017.25-.215 3.912-.44 8.139-.226 4.226-.427 7.704-.449 7.729-.02.024-3.015-1.01-6.655-2.297l-7.784-2.754c-.641-.227-1.22-.429-1.285-.45q-.12-.036-.12-.163c0-.07 1.038-9.53 2.307-21.024a8459 8459 0 0 1 2.326-20.953c.011-.03.183-.085.383-.12.2-.037.6-.139.888-.227.288-.089.729-.256.98-.371.25-.116.723-.39 1.051-.608.329-.219.81-.6 1.07-.847s.603-.61.762-.807c.16-.195.414-.541.566-.768a11 11 0 0 0 1.06-2.202c.088-.271.208-.725.266-1.007s.134-.838.168-1.236a7.4 7.4 0 0 0 0-1.42c-.033-.384-.11-.942-.17-1.238s-.204-.827-.32-1.177a12 12 0 0 0-.498-1.219c-.158-.32-.423-.785-.588-1.033a12 12 0 0 0-.664-.883 10 10 0 0 0-.753-.787 11 11 0 0 0-.82-.66 9 9 0 0 0-.957-.579 9 9 0 0 0-1.076-.454c-.302-.1-.763-.22-1.025-.266a10 10 0 0 0-1.087-.105zm.015 1.327c.314.013.743.06.954.104s.538.13.727.191a7.203 7.203 0 0 1 1.623.817c.178.127.478.362.665.522s.497.477.689.704c.191.228.48.616.64.864s.364.594.45.769c.088.175.249.556.358.848s.254.78.322 1.086.152.82.186 1.14c.037.349.047.817.026 1.166-.02.32-.085.83-.143 1.132a10 10 0 0 1-.267 1.034 9 9 0 0 1-.42 1.003c-.141.286-.407.739-.59 1.007a8.4 8.4 0 0 1-.842.997c-.297.296-.73.656-1.036.86a8 8 0 0 1-.931.534 8 8 0 0 1-.847.317 8 8 0 0 1-.758.186c-.174.029-.51.069-.744.088a6.4 6.4 0 0 1-.983-.025 9 9 0 0 1-1.058-.193 7.4 7.4 0 0 1-1.086-.418 8 8 0 0 1-1.007-.599 9 9 0 0 1-.833-.733 9 9 0 0 1-.735-.87 9.1 9.1 0 0 1-1.079-2.174 12 12 0 0 1-.242-.927c-.056-.263-.13-.793-.164-1.18a6.8 6.8 0 0 1 0-1.404c.035-.386.109-.907.164-1.157s.164-.644.242-.875.244-.633.371-.896c.127-.262.357-.668.512-.901.154-.233.543-.69.865-1.014a7 7 0 0 1 1.065-.905c.264-.173.712-.415.994-.539a8 8 0 0 1 1.02-.354c.28-.07.692-.151.915-.179s.663-.039.977-.026m-96.132 41.104.628-.007.175.175c.096.096.2.268.232.383.04.141.04.27.004.403-.034.128-3.643 5.075-10.457 14.335-5.723 7.777-10.468 14.188-10.545 14.245l-.14.105-.184-.088a.67.67 0 0 1-.292-.3l-.122-.21v-27.68l.15-.15c.123-.123.21-.155.49-.18.187-.017 1.307-.079 2.487-.138s3.506-.178 5.167-.265l5.645-.293c1.443-.076 3.41-.18 4.372-.233a80 80 0 0 1 2.377-.104zm123.87 17.222c.49-.002.822.028 1.15.1.252.056.622.166.821.244s.55.253.78.387c.23.135.608.422.838.639.231.216.523.538.649.715.125.177.314.494.419.704s.245.568.311.795c.106.365.12.528.117 1.394l-.003.98-.146.53a8 8 0 0 1-.375 1.014 7 7 0 0 1-.44.795c-.117.171-.327.439-.468.595a5 5 0 0 1-.603.548c-.191.145-.517.345-.725.445s-.563.229-.79.287c-.302.077-.585.106-1.054.105-.415 0-.808-.036-1.118-.1a6 6 0 0 1-.848-.244 7 7 0 0 1-.789-.391 5.7 5.7 0 0 1-.838-.638 6 6 0 0 1-.65-.716 7 7 0 0 1-.425-.716 5.6 5.6 0 0 1-.328-.9c-.114-.443-.132-.63-.137-1.462l-.006-.954.142-.53c.079-.291.25-.744.38-1.007s.39-.668.577-.9c.186-.234.49-.547.676-.696.186-.15.457-.345.603-.434.146-.088.396-.213.556-.276s.459-.16.663-.213c.267-.07.564-.099 1.06-.1zm-75.761 20.297c.085 0 .676.474 1.894 1.52.974.835 3.202 2.712 4.951 4.17 1.75 1.458 3.195 2.673 3.214 2.7s.014.12-.01.205-.092.23-.15.324a2 2 0 0 1-.28.338c-.14.132-2.492 1.132-11.27 4.789-6.101 2.542-11.107 4.608-11.123 4.591s-.015-.088.003-.16a.9.9 0 0 1 .158-.28c.069-.084 2.845-4.112 6.169-8.954s6.106-8.902 6.182-9.023c.098-.155.175-.22.262-.22z" style="stroke-width:.95322" transform="translate(-298.951 -277.892)"/></g></svg>