<?plantuml 1.2026.2?><svg xmlns="http://www.w3.org/2000/svg" xmlns:xlink="http://www.w3.org/1999/xlink" contentStyleType="text/css" data-diagram-type="CLASS" height="1377px" preserveAspectRatio="none" style="width:1758px;height:1377px;background:#FFFFFF;" version="1.1" viewBox="0 0 1758 1377" width="1758px" zoomAndPan="magnify"><title>ABS TableBuilder - Data Structure and Domain Model</title><defs/><g><g class="title" data-source-line="5"><text fill="#000000" font-family="Verdana" font-size="22" font-weight="bold" lengthAdjust="spacing" textLength="656.1328" x="546.4336" y="37.1182">ABS TableBuilder - Data Structure and Domain Model</text></g><!--cluster ABS TableBuilder Domain--><g class="cluster" data-qualified-name="ABS TableBuilder Domain" data-source-line="7" id="ent0002"><rect fill="#FFFFFF" height="857.32" rx="2.5" ry="2.5" style="stroke:#000000;stroke-width:1;" width="354" x="314" y="338.8573"/><text fill="#000000" font-family="Verdana" font-size="14" font-weight="bold" lengthAdjust="spacing" textLength="200.2246" x="390.8877" y="354.9325">ABS TableBuilder Domain</text></g><!--cluster Census Geography Domain--><g class="cluster" data-qualified-name="Census Geography Domain" data-source-line="52" id="ent0010"><rect fill="#FFFFFF" height="787.29" rx="2.5" ry="2.5" style="stroke:#000000;stroke-width:1;" width="328" x="692" y="583.9473"/><text fill="#000000" font-family="Verdana" font-size="14" font-weight="bold" lengthAdjust="spacing" textLength="210.9502" x="750.5249" y="600.0225">Census Geography Domain</text></g><!--cluster Table Request (Runtime)--><g class="cluster" data-qualified-name="Table Request .Runtime." data-source-line="93" id="ent0019"><rect fill="#FFFFFF" height="451.69" rx="2.5" ry="2.5" style="stroke:#000000;stroke-width:1;" width="278" x="12" y="59.7373"/><text fill="#000000" font-family="Verdana" font-size="14" font-weight="bold" lengthAdjust="spacing" textLength="197.7158" x="52.1421" y="75.8125">Table Request (Runtime)</text></g><!--cluster Data Pipeline--><g class="cluster" data-qualified-name="Data Pipeline" data-source-line="119" id="ent0026"><rect fill="#FFFFFF" height="679.76" rx="2.5" ry="2.5" style="stroke:#000000;stroke-width:1;" width="406" x="1346" y="85.2573"/><text fill="#000000" font-family="Verdana" font-size="14" font-weight="bold" lengthAdjust="spacing" textLength="104.46" x="1496.77" y="101.3325">Data Pipeline</text></g><!--class Dataset--><g class="entity" data-qualified-name="ABS TableBuilder Domain.Dataset" data-source-line="9" id="ent0003"><rect fill="#FFFFFF" height="146.0879" rx="2.5" ry="2.5" style="stroke:#000000;stroke-width:1;" width="322.3721" x="329.81" y="374.8573"/><ellipse cx="460.1108" cy="388.8573" fill="#FFFFFF" rx="9" ry="9" style="stroke:#000000;stroke-width:1;"/><path d="M462.5839,395.0004 Q462.0029,395.2992 461.3637,395.4486 Q460.7246,395.598 460.019,395.598 Q457.5121,395.598 456.1923,393.9462 Q454.8725,392.2943 454.8725,389.1732 Q454.8725,386.0438 456.1923,384.392 Q457.5121,382.7401 460.019,382.7401 Q460.7246,382.7401 461.372,382.8895 Q462.0195,383.0389 462.5839,383.3378 L462.5839,386.0604 Q461.9531,385.4794 461.3596,385.2096 Q460.7661,384.9398 460.1352,384.9398 Q458.7905,384.9398 458.1057,386.0065 Q457.4208,387.0731 457.4208,389.1732 Q457.4208,391.265 458.1057,392.3317 Q458.7905,393.3983 460.1352,393.3983 Q460.7661,393.3983 461.3596,393.1285 Q461.9531,392.8588 462.5839,392.2777 Z " fill="#000000"/><text fill="#000000" font-family="Verdana" font-size="14" lengthAdjust="spacing" textLength="54.2705" x="477.6108" y="394.4252">Dataset</text><line style="stroke:#000000;stroke-width:1;" x1="330.81" x2="651.1821" y1="402.8573" y2="402.8573"/><g data-visibility-modifier="PUBLIC_FIELD"><ellipse cx="340.81" cy="416.8646" fill="none" rx="3" ry="3" style="stroke:#000000;stroke-width:1;"/></g><text fill="#000000" font-family="Verdana" font-size="14" lengthAdjust="spacing" textLength="74.2109" x="347.81" y="420.9325">name : str</text><g data-visibility-modifier="PUBLIC_FIELD"><ellipse cx="340.81" cy="433.8793" fill="none" rx="3" ry="3" style="stroke:#000000;stroke-width:1;"/></g><text fill="#000000" font-family="Verdana" font-size="14" lengthAdjust="spacing" textLength="153.918" x="347.81" y="437.9471">geographies : list[str]</text><g data-visibility-modifier="PUBLIC_FIELD"><ellipse cx="340.81" cy="450.8939" fill="none" rx="3" ry="3" style="stroke:#000000;stroke-width:1;"/></g><text fill="#000000" font-family="Verdana" font-size="14" lengthAdjust="spacing" textLength="101.042" x="347.81" y="454.9618">summary : str</text><line style="stroke:#000000;stroke-width:1;" x1="330.81" x2="651.1821" y1="461.9013" y2="461.9013"/><text fill="#000000" font-family="Verdana" font-size="14" lengthAdjust="spacing" textLength="310.3721" x="335.81" y="479.9764">Census datasets have 60+ geography types</text><text fill="#000000" font-family="Verdana" font-size="14" lengthAdjust="spacing" textLength="300.7676" x="335.81" y="496.9911">Non-Census datasets have no geographies</text><text fill="#000000" font-family="Verdana" font-size="14" lengthAdjust="spacing" textLength="218.2578" x="335.81" y="514.0057">131 total datasets in catalogue</text></g><!--class VariableGroup--><g class="entity" data-qualified-name="ABS TableBuilder Domain.VariableGroup" data-source-line="19" id="ent0004"><rect fill="#FFFFFF" height="129.0732" rx="2.5" ry="2.5" style="stroke:#000000;stroke-width:1;" width="307.8047" x="337.1" y="611.4373"/><ellipse cx="437.244" cy="625.4373" fill="#FFFFFF" rx="9" ry="9" style="stroke:#000000;stroke-width:1;"/><path d="M439.7172,631.5804 Q439.1361,631.8792 438.497,632.0286 Q437.8578,632.178 437.1522,632.178 Q434.6454,632.178 433.3256,630.5262 Q432.0058,628.8743 432.0058,625.7532 Q432.0058,622.6238 433.3256,620.972 Q434.6454,619.3201 437.1522,619.3201 Q437.8578,619.3201 438.5053,619.4695 Q439.1527,619.6189 439.7172,619.9178 L439.7172,622.6404 Q439.0863,622.0594 438.4928,621.7896 Q437.8993,621.5198 437.2685,621.5198 Q435.9237,621.5198 435.2389,622.5865 Q434.5541,623.6531 434.5541,625.7532 Q434.5541,627.845 435.2389,628.9117 Q435.9237,629.9783 437.2685,629.9783 Q437.8993,629.9783 438.4928,629.7085 Q439.0863,629.4388 439.7172,628.8577 Z " fill="#000000"/><text fill="#000000" font-family="Verdana" font-size="14" lengthAdjust="spacing" textLength="100.0166" x="454.744" y="631.0052">VariableGroup</text><line style="stroke:#000000;stroke-width:1;" x1="338.1" x2="643.9047" y1="639.4373" y2="639.4373"/><g data-visibility-modifier="PUBLIC_FIELD"><ellipse cx="348.1" cy="653.4446" fill="none" rx="3" ry="3" style="stroke:#000000;stroke-width:1;"/></g><text fill="#000000" font-family="Verdana" font-size="14" lengthAdjust="spacing" textLength="68.1406" x="355.1" y="657.5125">label : str</text><g data-visibility-modifier="PUBLIC_FIELD"><ellipse cx="348.1" cy="670.4593" fill="none" rx="3" ry="3" style="stroke:#000000;stroke-width:1;"/></g><text fill="#000000" font-family="Verdana" font-size="14" lengthAdjust="spacing" textLength="66.4932" x="355.1" y="674.5271">path : str</text><line style="stroke:#000000;stroke-width:1;" x1="338.1" x2="643.9047" y1="681.4666" y2="681.4666"/><text fill="#000000" font-family="Verdana" font-size="14" lengthAdjust="spacing" textLength="295.8047" x="343.1" y="699.5418">Hierarchical path: "Parent &gt; Child &gt; Leaf"</text><text fill="#000000" font-family="Verdana" font-size="14" lengthAdjust="spacing" textLength="224.123" x="343.1" y="716.5564">Depth ranges from 0 to 6 levels</text><text fill="#000000" font-family="Verdana" font-size="14" lengthAdjust="spacing" textLength="228.8057" x="343.1" y="733.5711">6,762 groups across all datasets</text></g><!--class Variable--><g class="entity" data-qualified-name="ABS TableBuilder Domain.Variable" data-source-line="28" id="ent0005"><rect fill="#FFFFFF" height="146.0879" rx="2.5" ry="2.5" style="stroke:#000000;stroke-width:1;" width="246.6504" x="367.67" y="828.0173"/><ellipse cx="458.6915" cy="842.0173" fill="#FFFFFF" rx="9" ry="9" style="stroke:#000000;stroke-width:1;"/><path d="M461.1646,848.1604 Q460.5836,848.4592 459.9444,848.6086 Q459.3053,848.758 458.5997,848.758 Q456.0929,848.758 454.773,847.1062 Q453.4532,845.4543 453.4532,842.3332 Q453.4532,839.2038 454.773,837.552 Q456.0929,835.9001 458.5997,835.9001 Q459.3053,835.9001 459.9527,836.0495 Q460.6002,836.1989 461.1646,836.4978 L461.1646,839.2204 Q460.5338,838.6394 459.9403,838.3696 Q459.3468,838.0998 458.7159,838.0998 Q457.3712,838.0998 456.6864,839.1665 Q456.0015,840.2331 456.0015,842.3332 Q456.0015,844.425 456.6864,845.4917 Q457.3712,846.5583 458.7159,846.5583 Q459.3468,846.5583 459.9403,846.2885 Q460.5338,846.0188 461.1646,845.4377 Z " fill="#000000"/><text fill="#000000" font-family="Verdana" font-size="14" lengthAdjust="spacing" textLength="57.1074" x="476.1915" y="847.5852">Variable</text><line style="stroke:#000000;stroke-width:1;" x1="368.67" x2="613.3204" y1="856.0173" y2="856.0173"/><g data-visibility-modifier="PUBLIC_FIELD"><ellipse cx="378.67" cy="870.0246" fill="none" rx="3" ry="3" style="stroke:#000000;stroke-width:1;"/></g><text fill="#000000" font-family="Verdana" font-size="14" lengthAdjust="spacing" textLength="67.8398" x="385.67" y="874.0925">code : str</text><g data-visibility-modifier="PUBLIC_FIELD"><ellipse cx="378.67" cy="887.0393" fill="none" rx="3" ry="3" style="stroke:#000000;stroke-width:1;"/></g><text fill="#000000" font-family="Verdana" font-size="14" lengthAdjust="spacing" textLength="68.1406" x="385.67" y="891.1071">label : str</text><line style="stroke:#000000;stroke-width:1;" x1="368.67" x2="613.3204" y1="898.0466" y2="898.0466"/><text fill="#000000" font-family="Verdana" font-size="14" lengthAdjust="spacing" textLength="223.5898" x="373.67" y="916.1218">Code is ALL-CAPS, &lt;= 10 chars</text><text fill="#000000" font-family="Verdana" font-size="14" lengthAdjust="spacing" textLength="234.6504" x="373.67" y="933.1364">e.g. SEXP, AGEP, ANCP, ANZSCO</text><text fill="#000000" font-family="Verdana" font-size="14" lengthAdjust="spacing" textLength="232.1074" x="373.67" y="950.1511">93.5% of variables have no code</text><text fill="#000000" font-family="Verdana" font-size="14" lengthAdjust="spacing" textLength="154.335" x="373.67" y="967.1657">36,015 total variables</text></g><!--class Category--><g class="entity" data-qualified-name="ABS TableBuilder Domain.Category" data-source-line="38" id="ent0006"><rect fill="#FFFFFF" height="129.0732" rx="2.5" ry="2.5" style="stroke:#000000;stroke-width:1;" width="253.1172" x="364.44" y="1051.1073"/><ellipse cx="455.4888" cy="1065.1073" fill="#FFFFFF" rx="9" ry="9" style="stroke:#000000;stroke-width:1;"/><path d="M457.962,1071.2504 Q457.3809,1071.5492 456.7418,1071.6986 Q456.1026,1071.848 455.397,1071.848 Q452.8902,1071.848 451.5704,1070.1962 Q450.2505,1068.5443 450.2505,1065.4232 Q450.2505,1062.2938 451.5704,1060.642 Q452.8902,1058.9901 455.397,1058.9901 Q456.1026,1058.9901 456.7501,1059.1395 Q457.3975,1059.2889 457.962,1059.5878 L457.962,1062.3104 Q457.3311,1061.7294 456.7376,1061.4596 Q456.1441,1061.1898 455.5132,1061.1898 Q454.1685,1061.1898 453.4837,1062.2565 Q452.7989,1063.3231 452.7989,1065.4232 Q452.7989,1067.515 453.4837,1068.5817 Q454.1685,1069.6483 455.5132,1069.6483 Q456.1441,1069.6483 456.7376,1069.3785 Q457.3311,1069.1088 457.962,1068.5277 Z " fill="#000000"/><text fill="#000000" font-family="Verdana" font-size="14" lengthAdjust="spacing" textLength="63.5195" x="472.9888" y="1070.6752">Category</text><line style="stroke:#000000;stroke-width:1;" x1="365.44" x2="616.5572" y1="1079.1073" y2="1079.1073"/><g data-visibility-modifier="PUBLIC_FIELD"><ellipse cx="375.44" cy="1093.1146" fill="none" rx="3" ry="3" style="stroke:#000000;stroke-width:1;"/></g><text fill="#000000" font-family="Verdana" font-size="14" lengthAdjust="spacing" textLength="68.1406" x="382.44" y="1097.1825">label : str</text><line style="stroke:#000000;stroke-width:1;" x1="365.44" x2="616.5572" y1="1104.122" y2="1104.122"/><text fill="#000000" font-family="Verdana" font-size="14" lengthAdjust="spacing" textLength="221.833" x="370.44" y="1122.1971">Leaf values for cross-tabulation</text><text fill="#000000" font-family="Verdana" font-size="14" lengthAdjust="spacing" textLength="241.1172" x="370.44" y="1139.2118">e.g. "Male", "Female", "0-4 years"</text><text fill="#000000" font-family="Verdana" font-size="14" lengthAdjust="spacing" textLength="172.3477" x="370.44" y="1156.2264">317,274 total categories</text><text fill="#000000" font-family="Verdana" font-size="14" lengthAdjust="spacing" textLength="162.8115" x="370.44" y="1173.2411">Max 4,525 per variable</text></g><!--class GeographySection--><g class="entity" data-qualified-name="Census Geography Domain.GeographySection" data-source-line="54" id="ent0011"><rect fill="#FFFFFF" height="112.0586" rx="2.5" ry="2.5" style="stroke:#000000;stroke-width:1;" width="295.4824" x="708.26" y="619.9473"/><ellipse cx="787.9592" cy="633.9473" fill="#FFFFFF" rx="9" ry="9" style="stroke:#000000;stroke-width:1;"/><path d="M790.4324,640.0904 Q789.8513,640.3892 789.2121,640.5386 Q788.573,640.688 787.8674,640.688 Q785.3606,640.688 784.0408,639.0362 Q782.7209,637.3843 782.7209,634.2632 Q782.7209,631.1338 784.0408,629.482 Q785.3606,627.8301 787.8674,627.8301 Q788.573,627.8301 789.2204,627.9795 Q789.8679,628.1289 790.4324,628.4278 L790.4324,631.1504 Q789.8015,630.5694 789.208,630.2996 Q788.6145,630.0298 787.9836,630.0298 Q786.6389,630.0298 785.9541,631.0965 Q785.2693,632.1631 785.2693,634.2632 Q785.2693,636.355 785.9541,637.4217 Q786.6389,638.4883 787.9836,638.4883 Q788.6145,638.4883 789.208,638.2185 Q789.8015,637.9488 790.4324,637.3677 Z " fill="#000000"/><text fill="#000000" font-family="Verdana" font-size="14" lengthAdjust="spacing" textLength="128.584" x="805.4592" y="639.5152">GeographySection</text><line style="stroke:#000000;stroke-width:1;" x1="709.26" x2="1002.7424" y1="647.9473" y2="647.9473"/><g data-visibility-modifier="PUBLIC_METHOD"><ellipse cx="719.26" cy="661.9546" fill="#FFFFFF" rx="3" ry="3" style="stroke:#000000;stroke-width:1;"/></g><text fill="#000000" font-family="Verdana" font-size="14" lengthAdjust="spacing" textLength="271.4824" x="726.26" y="666.0225">label : str = "Geographical Areas (...)"</text><line style="stroke:#000000;stroke-width:1;" x1="709.26" x2="1002.7424" y1="672.962" y2="672.962"/><text fill="#000000" font-family="Verdana" font-size="14" lengthAdjust="spacing" textLength="254.7959" x="714.26" y="691.0371">Only in Census datasets (11 of 131)</text><text fill="#000000" font-family="Verdana" font-size="14" lengthAdjust="spacing" textLength="224.2939" x="714.26" y="708.0518">Separate from regular variables</text><text fill="#000000" font-family="Verdana" font-size="14" lengthAdjust="spacing" textLength="255.582" x="714.26" y="725.0664">Identified by absence of checkboxes</text></g><!--class GeographyLevel--><g class="entity" data-qualified-name="Census Geography Domain.GeographyLevel" data-source-line="62" id="ent0012"><rect fill="#FFFFFF" height="129.0732" rx="2.5" ry="2.5" style="stroke:#000000;stroke-width:1;" width="250.499" x="753.75" y="836.5273"/><ellipse cx="818.6172" cy="850.5273" fill="#FFFFFF" rx="9" ry="9" style="stroke:#000000;stroke-width:1;"/><path d="M821.0903,856.6704 Q820.5093,856.9692 819.8701,857.1186 Q819.231,857.268 818.5254,857.268 Q816.0186,857.268 814.6987,855.6162 Q813.3789,853.9643 813.3789,850.8432 Q813.3789,847.7138 814.6987,846.062 Q816.0186,844.4101 818.5254,844.4101 Q819.231,844.4101 819.8784,844.5595 Q820.5259,844.7089 821.0903,845.0078 L821.0903,847.7304 Q820.4595,847.1494 819.866,846.8796 Q819.2725,846.6098 818.6416,846.6098 Q817.2969,846.6098 816.6121,847.6765 Q815.9272,848.7431 815.9272,850.8432 Q815.9272,852.935 816.6121,854.0017 Q817.2969,855.0683 818.6416,855.0683 Q819.2725,855.0683 819.866,854.7985 Q820.4595,854.5288 821.0903,853.9477 Z " fill="#000000"/><text fill="#000000" font-family="Verdana" font-size="14" lengthAdjust="spacing" textLength="113.2646" x="836.1172" y="856.0952">GeographyLevel</text><line style="stroke:#000000;stroke-width:1;" x1="754.75" x2="1003.249" y1="864.5273" y2="864.5273"/><g data-visibility-modifier="PUBLIC_FIELD"><ellipse cx="764.75" cy="878.5346" fill="none" rx="3" ry="3" style="stroke:#000000;stroke-width:1;"/></g><text fill="#000000" font-family="Verdana" font-size="14" lengthAdjust="spacing" textLength="74.2109" x="771.75" y="882.6025">name : str</text><line style="stroke:#000000;stroke-width:1;" x1="754.75" x2="1003.249" y1="889.542" y2="889.542"/><text fill="#000000" font-family="Verdana" font-size="14" lengthAdjust="spacing" textLength="175.3623" x="759.75" y="907.6171">e.g. "Remoteness Areas"</text><text fill="#000000" font-family="Verdana" font-size="14" lengthAdjust="spacing" textLength="227.7734" x="759.75" y="924.6318">"Main Statistical Area Structure"</text><text fill="#000000" font-family="Verdana" font-size="14" lengthAdjust="spacing" textLength="238.499" x="759.75" y="941.6464">"Local Government Areas (2021)"</text><text fill="#000000" font-family="Verdana" font-size="14" lengthAdjust="spacing" textLength="207.6006" x="759.75" y="958.6611">60+ distinct geography types</text></g><!--class State--><g class="entity" data-qualified-name="Census Geography Domain.State" data-source-line="71" id="ent0013"><rect fill="#FFFFFF" height="112.0586" rx="2.5" ry="2.5" style="stroke:#000000;stroke-width:1;" width="195.7158" x="801.14" y="1059.6173"/><ellipse cx="876.5721" cy="1073.6173" fill="#FFFFFF" rx="9" ry="9" style="stroke:#000000;stroke-width:1;"/><path d="M879.0453,1079.7604 Q878.4642,1080.0592 877.8251,1080.2086 Q877.1859,1080.358 876.4803,1080.358 Q873.9735,1080.358 872.6537,1078.7062 Q871.3338,1077.0543 871.3338,1073.9332 Q871.3338,1070.8038 872.6537,1069.152 Q873.9735,1067.5001 876.4803,1067.5001 Q877.1859,1067.5001 877.8334,1067.6495 Q878.4808,1067.7989 879.0453,1068.0978 L879.0453,1070.8204 Q878.4144,1070.2394 877.8209,1069.9696 Q877.2274,1069.6998 876.5965,1069.6998 Q875.2518,1069.6998 874.567,1070.7665 Q873.8822,1071.8331 873.8822,1073.9332 Q873.8822,1076.025 874.567,1077.0917 Q875.2518,1078.1583 876.5965,1078.1583 Q877.2274,1078.1583 877.8209,1077.8885 Q878.4144,1077.6188 879.0453,1077.0377 Z " fill="#000000"/><text fill="#000000" font-family="Verdana" font-size="14" lengthAdjust="spacing" textLength="37.3516" x="894.0721" y="1079.1852">State</text><line style="stroke:#000000;stroke-width:1;" x1="802.14" x2="995.8558" y1="1087.6173" y2="1087.6173"/><g data-visibility-modifier="PUBLIC_FIELD"><ellipse cx="812.14" cy="1101.6246" fill="none" rx="3" ry="3" style="stroke:#000000;stroke-width:1;"/></g><text fill="#000000" font-family="Verdana" font-size="14" lengthAdjust="spacing" textLength="74.2109" x="819.14" y="1105.6925">name : str</text><line style="stroke:#000000;stroke-width:1;" x1="802.14" x2="995.8558" y1="1112.632" y2="1112.632"/><text fill="#000000" font-family="Verdana" font-size="14" lengthAdjust="spacing" textLength="168.1641" x="807.14" y="1130.7071">e.g. "New South Wales"</text><text fill="#000000" font-family="Verdana" font-size="14" lengthAdjust="spacing" textLength="171.2061" x="807.14" y="1147.7218">"Victoria", "Queensland"</text><text fill="#000000" font-family="Verdana" font-size="14" lengthAdjust="spacing" textLength="183.7158" x="807.14" y="1164.7364">Parent container for areas</text></g><!--class GeographicArea--><g class="entity" data-qualified-name="Census Geography Domain.GeographicArea" data-source-line="79" id="ent0014"><rect fill="#FFFFFF" height="112.0586" rx="2.5" ry="2.5" style="stroke:#000000;stroke-width:1;" width="193.4736" x="802.26" y="1243.1773"/><ellipse cx="839.4093" cy="1257.1773" fill="#FFFFFF" rx="9" ry="9" style="stroke:#000000;stroke-width:1;"/><path d="M841.8824,1263.3204 Q841.3014,1263.6192 840.6622,1263.7686 Q840.023,1263.918 839.3175,1263.918 Q836.8106,1263.918 835.4908,1262.2662 Q834.171,1260.6143 834.171,1257.4932 Q834.171,1254.3638 835.4908,1252.712 Q836.8106,1251.0601 839.3175,1251.0601 Q840.023,1251.0601 840.6705,1251.2095 Q841.318,1251.3589 841.8824,1251.6578 L841.8824,1254.3804 Q841.2516,1253.7994 840.658,1253.5296 Q840.0645,1253.2598 839.4337,1253.2598 Q838.089,1253.2598 837.4041,1254.3265 Q836.7193,1255.3931 836.7193,1257.4932 Q836.7193,1259.585 837.4041,1260.6517 Q838.089,1261.7183 839.4337,1261.7183 Q840.0645,1261.7183 840.658,1261.4485 Q841.2516,1261.1788 841.8824,1260.5977 Z " fill="#000000"/><text fill="#000000" font-family="Verdana" font-size="14" lengthAdjust="spacing" textLength="111.8086" x="856.7758" y="1262.7452">GeographicArea</text><line style="stroke:#000000;stroke-width:1;" x1="803.26" x2="994.7336" y1="1271.1773" y2="1271.1773"/><g data-visibility-modifier="PUBLIC_FIELD"><ellipse cx="813.26" cy="1285.1846" fill="none" rx="3" ry="3" style="stroke:#000000;stroke-width:1;"/></g><text fill="#000000" font-family="Verdana" font-size="14" lengthAdjust="spacing" textLength="68.1406" x="820.26" y="1289.2525">label : str</text><line style="stroke:#000000;stroke-width:1;" x1="803.26" x2="994.7336" y1="1296.192" y2="1296.192"/><text fill="#000000" font-family="Verdana" font-size="14" lengthAdjust="spacing" textLength="181.4736" x="808.26" y="1314.2671">Leaf selectable categories</text><text fill="#000000" font-family="Verdana" font-size="14" lengthAdjust="spacing" textLength="155.415" x="808.26" y="1331.2818">e.g. "Greater Sydney"</text><text fill="#000000" font-family="Verdana" font-size="14" lengthAdjust="spacing" textLength="180.8584" x="808.26" y="1348.2964">"Major Cities of Australia"</text></g><!--class Axis--><g class="entity" data-qualified-name="Table Request .Runtime..Axis" data-source-line="95" id="ent0020"><rect fill="#FFFFFF" height="95.0439" rx="2.5" ry="2.5" style="stroke:#000000;stroke-width:1;" width="62.0459" x="112.98" y="400.3773"/><ellipse cx="128.2546" cy="414.3773" fill="#FFFFFF" rx="9" ry="9" style="stroke:#000000;stroke-width:1;"/><path d="M131.8689,420.8773 L124.1491,420.8773 L124.1491,408.4842 L131.8689,408.4842 L131.8689,410.6424 L126.5979,410.6424 L126.5979,413.3153 L131.3708,413.3153 L131.3708,415.4735 L126.5979,415.4735 L126.5979,418.7191 L131.8689,418.7191 Z " fill="#000000"/><text fill="#000000" font-family="Verdana" font-size="14" lengthAdjust="spacing" textLength="28.9912" x="140.7601" y="419.9452">Axis</text><line style="stroke:#000000;stroke-width:1;" x1="113.98" x2="174.0259" y1="428.3773" y2="428.3773"/><text fill="#000000" font-family="Verdana" font-size="14" lengthAdjust="spacing" textLength="34.5967" x="118.98" y="446.4525">ROW</text><text fill="#000000" font-family="Verdana" font-size="14" lengthAdjust="spacing" textLength="28.5879" x="118.98" y="463.4671">COL</text><text fill="#000000" font-family="Verdana" font-size="14" lengthAdjust="spacing" textLength="50.0459" x="118.98" y="480.4818">WAFER</text><line style="stroke:#000000;stroke-width:1;" x1="113.98" x2="174.0259" y1="487.4213" y2="487.4213"/></g><!--class TableRequest--><g class="entity" data-qualified-name="Table Request .Runtime..TableRequest" data-source-line="101" id="ent0021"><rect fill="#FFFFFF" height="180.1172" rx="2.5" ry="2.5" style="stroke:#000000;stroke-width:1;" width="245.8467" x="28.08" y="95.7373"/><ellipse cx="99.8803" cy="109.7373" fill="#FFFFFF" rx="9" ry="9" style="stroke:#000000;stroke-width:1;"/><path d="M102.3534,115.8804 Q101.7724,116.1792 101.1332,116.3286 Q100.4941,116.478 99.7885,116.478 Q97.2817,116.478 95.9618,114.8262 Q94.642,113.1743 94.642,110.0532 Q94.642,106.9238 95.9618,105.272 Q97.2817,103.6201 99.7885,103.6201 Q100.4941,103.6201 101.1415,103.7695 Q101.789,103.9189 102.3534,104.2178 L102.3534,106.9404 Q101.7226,106.3594 101.1291,106.0896 Q100.5356,105.8198 99.9047,105.8198 Q98.56,105.8198 97.8752,106.8865 Q97.1904,107.9531 97.1904,110.0532 Q97.1904,112.145 97.8752,113.2117 Q98.56,114.2783 99.9047,114.2783 Q100.5356,114.2783 101.1291,114.0085 Q101.7226,113.7388 102.3534,113.1577 Z " fill="#000000"/><text fill="#000000" font-family="Verdana" font-size="14" lengthAdjust="spacing" textLength="94.7461" x="117.3803" y="115.3052">TableRequest</text><line style="stroke:#000000;stroke-width:1;" x1="29.08" x2="272.9267" y1="123.7373" y2="123.7373"/><g data-visibility-modifier="PUBLIC_FIELD"><ellipse cx="39.08" cy="137.7446" fill="none" rx="3" ry="3" style="stroke:#000000;stroke-width:1;"/></g><text fill="#000000" font-family="Verdana" font-size="14" lengthAdjust="spacing" textLength="87.1924" x="46.08" y="141.8125">dataset : str</text><g data-visibility-modifier="PUBLIC_FIELD"><ellipse cx="39.08" cy="154.7593" fill="none" rx="3" ry="3" style="stroke:#000000;stroke-width:1;"/></g><text fill="#000000" font-family="Verdana" font-size="14" lengthAdjust="spacing" textLength="101.418" x="46.08" y="158.8271">rows : list[str]</text><g data-visibility-modifier="PUBLIC_FIELD"><ellipse cx="39.08" cy="171.7739" fill="none" rx="3" ry="3" style="stroke:#000000;stroke-width:1;"/></g><text fill="#000000" font-family="Verdana" font-size="14" lengthAdjust="spacing" textLength="95.1221" x="46.08" y="175.8418">cols : list[str]</text><g data-visibility-modifier="PUBLIC_FIELD"><ellipse cx="39.08" cy="188.7886" fill="none" rx="3" ry="3" style="stroke:#000000;stroke-width:1;"/></g><text fill="#000000" font-family="Verdana" font-size="14" lengthAdjust="spacing" textLength="114.5908" x="46.08" y="192.8564">wafers : list[str]</text><g data-visibility-modifier="PUBLIC_FIELD"><ellipse cx="39.08" cy="205.8032" fill="none" rx="3" ry="3" style="stroke:#000000;stroke-width:1;"/></g><text fill="#000000" font-family="Verdana" font-size="14" lengthAdjust="spacing" textLength="161.8887" x="46.08" y="209.8711">geography : str | None</text><g data-visibility-modifier="PUBLIC_FIELD"><ellipse cx="39.08" cy="222.8179" fill="none" rx="3" ry="3" style="stroke:#000000;stroke-width:1;"/></g><text fill="#000000" font-family="Verdana" font-size="14" lengthAdjust="spacing" textLength="154.2529" x="46.08" y="226.8857">geo_filter : str | None</text><line style="stroke:#000000;stroke-width:1;" x1="29.08" x2="272.9267" y1="233.8252" y2="233.8252"/><g data-visibility-modifier="PUBLIC_METHOD"><ellipse cx="39.08" cy="247.8325" fill="#FFFFFF" rx="3" ry="3" style="stroke:#000000;stroke-width:1;"/></g><text fill="#000000" font-family="Verdana" font-size="14" lengthAdjust="spacing" textLength="169.0186" x="46.08" y="251.9004">all_variables() : list[str]</text><g data-visibility-modifier="PUBLIC_METHOD"><ellipse cx="39.08" cy="264.8472" fill="#FFFFFF" rx="3" ry="3" style="stroke:#000000;stroke-width:1;"/></g><text fill="#000000" font-family="Verdana" font-size="14" lengthAdjust="spacing" textLength="221.8467" x="46.08" y="268.915">variable_axes() : dict[str, Axis]</text></g><!--class TreeExtractor--><g class="entity" data-qualified-name="Data Pipeline.TreeExtractor" data-source-line="121" id="ent0027"><rect fill="#FFFFFF" height="129.0732" rx="2.5" ry="2.5" style="stroke:#000000;stroke-width:1;" width="369.4131" x="1364.29" y="121.2573"/><ellipse cx="1497.4463" cy="135.2573" fill="#FFFFFF" rx="9" ry="9" style="stroke:#000000;stroke-width:1;"/><path d="M1499.9194,141.4004 Q1499.3383,141.6992 1498.6992,141.8486 Q1498.06,141.998 1497.3545,141.998 Q1494.8476,141.998 1493.5278,140.3462 Q1492.208,138.6943 1492.208,135.5732 Q1492.208,132.4438 1493.5278,130.792 Q1494.8476,129.1401 1497.3545,129.1401 Q1498.06,129.1401 1498.7075,129.2895 Q1499.3549,129.4389 1499.9194,129.7378 L1499.9194,132.4604 Q1499.2885,131.8794 1498.695,131.6096 Q1498.1015,131.3398 1497.4707,131.3398 Q1496.1259,131.3398 1495.4411,132.4065 Q1494.7563,133.4731 1494.7563,135.5732 Q1494.7563,137.665 1495.4411,138.7317 Q1496.1259,139.7983 1497.4707,139.7983 Q1498.1015,139.7983 1498.695,139.5285 Q1499.2885,139.2588 1499.9194,138.6777 Z " fill="#000000"/><text fill="#000000" font-family="Verdana" font-size="14" lengthAdjust="spacing" textLength="95.6006" x="1514.9463" y="140.8252">TreeExtractor</text><line style="stroke:#000000;stroke-width:1;" x1="1365.29" x2="1732.7031" y1="149.2573" y2="149.2573"/><g data-visibility-modifier="PUBLIC_METHOD"><ellipse cx="1375.29" cy="163.2646" fill="#FFFFFF" rx="3" ry="3" style="stroke:#000000;stroke-width:1;"/></g><text fill="#000000" font-family="Verdana" font-size="14" lengthAdjust="spacing" textLength="345.4131" x="1382.29" y="167.3325">extract_dataset_tree(page, name) : DatasetTree</text><g data-visibility-modifier="PUBLIC_METHOD"><ellipse cx="1375.29" cy="180.2793" fill="#FFFFFF" rx="3" ry="3" style="stroke:#000000;stroke-width:1;"/></g><text fill="#000000" font-family="Verdana" font-size="14" lengthAdjust="spacing" textLength="324.5977" x="1382.29" y="184.3471">extract_all_datasets(page) : list[DatasetTree]</text><line style="stroke:#000000;stroke-width:1;" x1="1365.29" x2="1732.7031" y1="191.2866" y2="191.2866"/><text fill="#000000" font-family="Verdana" font-size="14" lengthAdjust="spacing" textLength="219.4746" x="1370.29" y="209.3618">Playwright browser automation</text><text fill="#000000" font-family="Verdana" font-size="14" lengthAdjust="spacing" textLength="272.2959" x="1370.29" y="226.3764">JS DOM extraction via page.evaluate()</text><text fill="#000000" font-family="Verdana" font-size="14" lengthAdjust="spacing" textLength="228.2861" x="1370.29" y="243.3911">Crash recovery with JSON cache</text></g><!--class DictionaryDB--><g class="entity" data-qualified-name="Data Pipeline.DictionaryDB" data-source-line="130" id="ent0028"><rect fill="#FFFFFF" height="146.0879" rx="2.5" ry="2.5" style="stroke:#000000;stroke-width:1;" width="374.4785" x="1361.76" y="602.9273"/><ellipse cx="1499.404" cy="616.9273" fill="#FFFFFF" rx="9" ry="9" style="stroke:#000000;stroke-width:1;"/><path d="M1501.8772,623.0704 Q1501.2961,623.3692 1500.657,623.5186 Q1500.0178,623.668 1499.3122,623.668 Q1496.8054,623.668 1495.4856,622.0162 Q1494.1658,620.3643 1494.1658,617.2432 Q1494.1658,614.1138 1495.4856,612.462 Q1496.8054,610.8101 1499.3122,610.8101 Q1500.0178,610.8101 1500.6653,610.9595 Q1501.3127,611.1089 1501.8772,611.4078 L1501.8772,614.1304 Q1501.2463,613.5494 1500.6528,613.2796 Q1500.0593,613.0098 1499.4285,613.0098 Q1498.0837,613.0098 1497.3989,614.0765 Q1496.7141,615.1431 1496.7141,617.2432 Q1496.7141,619.335 1497.3989,620.4017 Q1498.0837,621.4683 1499.4285,621.4683 Q1500.0593,621.4683 1500.6528,621.1985 Q1501.2463,620.9288 1501.8772,620.3477 Z " fill="#000000"/><text fill="#000000" font-family="Verdana" font-size="14" lengthAdjust="spacing" textLength="91.6904" x="1516.904" y="622.4952">DictionaryDB</text><line style="stroke:#000000;stroke-width:1;" x1="1362.76" x2="1735.2385" y1="630.9273" y2="630.9273"/><g data-visibility-modifier="PUBLIC_METHOD"><ellipse cx="1372.76" cy="644.9346" fill="#FFFFFF" rx="3" ry="3" style="stroke:#000000;stroke-width:1;"/></g><text fill="#000000" font-family="Verdana" font-size="14" lengthAdjust="spacing" textLength="208.5508" x="1379.76" y="649.0025">build_db(cache_dir, db_path)</text><g data-visibility-modifier="PUBLIC_METHOD"><ellipse cx="1372.76" cy="661.9493" fill="#FFFFFF" rx="3" ry="3" style="stroke:#000000;stroke-width:1;"/></g><text fill="#000000" font-family="Verdana" font-size="14" lengthAdjust="spacing" textLength="241.7188" x="1379.76" y="666.0171">search(db_path, query) : list[dict]</text><g data-visibility-modifier="PUBLIC_METHOD"><ellipse cx="1372.76" cy="678.9639" fill="#FFFFFF" rx="3" ry="3" style="stroke:#000000;stroke-width:1;"/></g><text fill="#000000" font-family="Verdana" font-size="14" lengthAdjust="spacing" textLength="245.0684" x="1379.76" y="683.0318">get_dataset(db_path, name) : dict</text><g data-visibility-modifier="PUBLIC_METHOD"><ellipse cx="1372.76" cy="695.9786" fill="#FFFFFF" rx="3" ry="3" style="stroke:#000000;stroke-width:1;"/></g><text fill="#000000" font-family="Verdana" font-size="14" lengthAdjust="spacing" textLength="350.4785" x="1379.76" y="700.0464">get_variables_by_code(db_path, code) : list[dict]</text><line style="stroke:#000000;stroke-width:1;" x1="1362.76" x2="1735.2385" y1="706.9859" y2="706.9859"/><text fill="#000000" font-family="Verdana" font-size="14" lengthAdjust="spacing" textLength="214.0195" x="1367.76" y="725.0611">SQLite + FTS5 full-text search</text><text fill="#000000" font-family="Verdana" font-size="14" lengthAdjust="spacing" textLength="218.2988" x="1367.76" y="742.0757">Idempotent rebuild from cache</text></g><!--class JSONCache--><g class="entity" data-qualified-name="Data Pipeline.JSONCache" data-source-line="140" id="ent0029"><rect fill="#FFFFFF" height="112.0586" rx="2.5" ry="2.5" style="stroke:#000000;stroke-width:1;" width="253.4756" x="1422.26" y="391.8673"/><ellipse cx="1505.196" cy="405.8673" fill="#FFFFFF" rx="9" ry="9" style="stroke:#000000;stroke-width:1;"/><path d="M1507.6692,412.0104 Q1507.0881,412.3092 1506.449,412.4586 Q1505.8098,412.608 1505.1042,412.608 Q1502.5974,412.608 1501.2776,410.9562 Q1499.9578,409.3043 1499.9578,406.1832 Q1499.9578,403.0538 1501.2776,401.402 Q1502.5974,399.7501 1505.1042,399.7501 Q1505.8098,399.7501 1506.4573,399.8995 Q1507.1047,400.0489 1507.6692,400.3478 L1507.6692,403.0704 Q1507.0383,402.4894 1506.4448,402.2196 Q1505.8513,401.9498 1505.2204,401.9498 Q1503.8757,401.9498 1503.1909,403.0165 Q1502.5061,404.0831 1502.5061,406.1832 Q1502.5061,408.275 1503.1909,409.3417 Q1503.8757,410.4083 1505.2204,410.4083 Q1505.8513,410.4083 1506.4448,410.1385 Q1507.0383,409.8688 1507.6692,409.2877 Z " fill="#000000"/><text fill="#000000" font-family="Verdana" font-size="14" lengthAdjust="spacing" textLength="80.1035" x="1522.696" y="411.4352">JSONCache</text><line style="stroke:#000000;stroke-width:1;" x1="1423.26" x2="1674.7356" y1="419.8673" y2="419.8673"/><g data-visibility-modifier="PUBLIC_FIELD"><ellipse cx="1433.26" cy="433.8746" fill="none" rx="3" ry="3" style="stroke:#000000;stroke-width:1;"/></g><text fill="#000000" font-family="Verdana" font-size="14" lengthAdjust="spacing" textLength="229.4756" x="1440.26" y="437.9425">path : /.tablebuilder/dict_cache/</text><line style="stroke:#000000;stroke-width:1;" x1="1423.26" x2="1674.7356" y1="444.882" y2="444.882"/><text fill="#000000" font-family="Verdana" font-size="14" lengthAdjust="spacing" textLength="102.2109" x="1428.26" y="462.9571">131 JSON files</text><text fill="#000000" font-family="Verdana" font-size="14" lengthAdjust="spacing" textLength="113.3057" x="1428.26" y="479.9718">One per dataset</text><text fill="#000000" font-family="Verdana" font-size="14" lengthAdjust="spacing" textLength="238.0273" x="1428.26" y="496.9864">Filename: sanitized dataset name</text></g><!--reverse link Dataset to VariableGroup--><g class="link" data-entity-1="ent0003" data-entity-2="ent0004" data-link-type="composition" data-source-line="47" id="lnk7"><path codeLine="47" d="M491,533.3673 C491,562.2973 491,583.3073 491,611.3073" fill="none" id="Dataset-backto-VariableGroup" style="stroke:#000000;stroke-width:1;"/><polygon fill="#000000" points="491,521.3673,487,527.3673,491,533.3673,495,527.3673,491,521.3673" style="stroke:#000000;stroke-width:1;"/><polygon fill="#000000" points="496,564.847,498.9389,555.8019,493.0611,555.8019,496,564.847" style="stroke:#000000;stroke-width:1;"/><text fill="#000000" font-family="Verdana" font-size="13" lengthAdjust="spacing" textLength="54.3867" x="505" y="565.0171">contains</text><text fill="#000000" font-family="Verdana" font-size="13" lengthAdjust="spacing" textLength="8.2646" x="482.6438" y="541.938">1</text><text fill="#000000" font-family="Verdana" font-size="13" lengthAdjust="spacing" textLength="25.9873" x="464.5364" y="600.6305">1..*</text></g><!--reverse link VariableGroup to Variable--><g class="link" data-entity-1="ent0004" data-entity-2="ent0005" data-link-type="composition" data-source-line="48" id="lnk8"><path codeLine="48" d="M491,752.8973 C491,780.0673 491,799.8773 491,827.8873" fill="none" id="VariableGroup-backto-Variable" style="stroke:#000000;stroke-width:1;"/><polygon fill="#000000" points="491,740.8973,487,746.8973,491,752.8973,495,746.8973,491,740.8973" style="stroke:#000000;stroke-width:1;"/><polygon fill="#000000" points="496,794.917,498.9389,785.8719,493.0611,785.8719,496,794.917" style="stroke:#000000;stroke-width:1;"/><text fill="#000000" font-family="Verdana" font-size="13" lengthAdjust="spacing" textLength="54.3867" x="505" y="795.0871">contains</text><text fill="#000000" font-family="Verdana" font-size="13" lengthAdjust="spacing" textLength="8.2646" x="482.6009" y="761.477">1</text><text fill="#000000" font-family="Verdana" font-size="13" lengthAdjust="spacing" textLength="25.9873" x="464.6873" y="817.1771">1..*</text></g><!--reverse link Variable to Category--><g class="link" data-entity-1="ent0005" data-entity-2="ent0006" data-link-type="composition" data-source-line="49" id="lnk9"><path codeLine="49" d="M491,986.3273 C491,1011.1273 491,1026.6773 491,1050.7673" fill="none" id="Variable-backto-Category" style="stroke:#000000;stroke-width:1;"/><polygon fill="#000000" points="491,974.3273,487,980.3273,491,986.3273,495,980.3273,491,974.3273" style="stroke:#000000;stroke-width:1;"/><polygon fill="#000000" points="496,1018.007,498.9389,1008.9619,493.0611,1008.9619,496,1018.007" style="stroke:#000000;stroke-width:1;"/><text fill="#000000" font-family="Verdana" font-size="13" lengthAdjust="spacing" textLength="22.8071" x="505" y="1018.1771">has</text><text fill="#000000" font-family="Verdana" font-size="13" lengthAdjust="spacing" textLength="8.2646" x="482.6318" y="995.1332">1</text><text fill="#000000" font-family="Verdana" font-size="13" lengthAdjust="spacing" textLength="25.9873" x="464.6119" y="1040.5148">1..*</text></g><!--reverse link Dataset to GeographySection--><g class="link" data-entity-1="ent0003" data-entity-2="ent0011" data-link-type="composition" data-source-line="87" id="lnk15"><path codeLine="87" d="M618.1922,527.6851 C669.5922,559.5151 718.79,589.9873 766.56,619.5773" fill="none" id="Dataset-backto-GeographySection" style="stroke:#000000;stroke-width:1;"/><polygon fill="#000000" points="607.99,521.3673,610.9852,527.927,618.1922,527.6851,615.197,521.1255,607.99,521.3673" style="stroke:#000000;stroke-width:1;"/><text fill="#000000" font-family="Verdana" font-size="13" lengthAdjust="spacing" textLength="8.2646" x="610.4188" y="541.938">1</text><text fill="#000000" font-family="Verdana" font-size="13" lengthAdjust="spacing" textLength="25.9873" x="727.928" y="609.1144">0..1</text></g><!--reverse link GeographySection to GeographyLevel--><g class="link" data-entity-1="ent0011" data-entity-2="ent0012" data-link-type="composition" data-source-line="88" id="lnk16"><path codeLine="88" d="M862.9423,744.3439 C866.1923,775.8239 869.04,803.4473 872.42,836.2273" fill="none" id="GeographySection-backto-GeographyLevel" style="stroke:#000000;stroke-width:1;"/><polygon fill="#000000" points="861.71,732.4073,858.3473,738.7864,862.9423,744.3439,866.305,737.9648,861.71,732.4073" style="stroke:#000000;stroke-width:1;"/><text fill="#000000" font-family="Verdana" font-size="13" lengthAdjust="spacing" textLength="8.2646" x="853.9229" y="752.9153">1</text><text fill="#000000" font-family="Verdana" font-size="13" lengthAdjust="spacing" textLength="25.9873" x="845.271" y="825.9794">1..*</text></g><!--reverse link GeographyLevel to State--><g class="link" data-entity-1="ent0012" data-entity-2="ent0013" data-link-type="composition" data-source-line="89" id="lnk17"><path codeLine="89" d="M886.1259,977.7944 C888.9259,1007.5044 891.09,1030.5873 893.78,1059.1873" fill="none" id="GeographyLevel-backto-State" style="stroke:#000000;stroke-width:1;"/><polygon fill="#000000" points="885,965.8473,881.5806,972.1961,886.1259,977.7944,889.5453,971.4455,885,965.8473" style="stroke:#000000;stroke-width:1;"/><text fill="#000000" font-family="Verdana" font-size="13" lengthAdjust="spacing" textLength="8.2646" x="877.2333" y="986.8668">1</text><text fill="#000000" font-family="Verdana" font-size="13" lengthAdjust="spacing" textLength="25.9873" x="866.4655" y="1048.7163">1..*</text></g><!--reverse link State to GeographicArea--><g class="link" data-entity-1="ent0013" data-entity-2="ent0014" data-link-type="composition" data-source-line="90" id="lnk18"><path codeLine="90" d="M899,1184.1073 C899,1206.5273 899,1220.3573 899,1242.7773" fill="none" id="State-backto-GeographicArea" style="stroke:#000000;stroke-width:1;"/><polygon fill="#000000" points="899,1172.1073,895,1178.1073,899,1184.1073,903,1178.1073,899,1172.1073" style="stroke:#000000;stroke-width:1;"/><text fill="#000000" font-family="Verdana" font-size="13" lengthAdjust="spacing" textLength="8.2646" x="890.553" y="1192.6188">1</text><text fill="#000000" font-family="Verdana" font-size="13" lengthAdjust="spacing" textLength="25.9873" x="872.3871" y="1232.3103">1..*</text></g><!--link TableRequest to Dataset--><g class="link" data-entity-1="ent0021" data-entity-2="ent0003" data-link-type="dependency" data-source-line="113" id="lnk22"><path codeLine="113" d="M268.01,276.3073 C309.88,308.3473 351.7646,340.3816 391.5146,370.7916" fill="none" id="TableRequest-to-Dataset" style="stroke:#000000;stroke-width:1;"/><polygon fill="#000000" points="396.28,374.4373,391.5624,365.7919,392.3088,371.3992,386.7014,372.1457,396.28,374.4373" style="stroke:#000000;stroke-width:1;"/><text fill="#000000" font-family="Verdana" font-size="13" lengthAdjust="spacing" textLength="129.7715" x="322" y="319.9271">references by name</text></g><!--link TableRequest to Axis--><g class="link" data-entity-1="ent0021" data-entity-2="ent0020" data-link-type="dependency" data-source-line="114" id="lnk23"><path codeLine="114" d="M148.59,276.3073 C147.47,317.8973 146.3522,359.6295 145.4222,394.0095" fill="none" id="TableRequest-to-Axis" style="stroke:#000000;stroke-width:1;"/><polygon fill="#000000" points="145.26,400.0073,149.5019,391.1188,145.3952,395.0091,141.5048,390.9024,145.26,400.0073" style="stroke:#000000;stroke-width:1;"/><text fill="#000000" font-family="Verdana" font-size="13" lengthAdjust="spacing" textLength="128.7813" x="148.71" y="319.9271">assigns variables to</text></g><!--link TableRequest to GeographyLevel--><g class="link" data-entity-1="ent0021" data-entity-2="ent0012" data-link-type="dependency" data-source-line="115" id="lnk24"><path codeLine="115" d="M274.06,196.4773 C477.87,220.1773 877.29,301.2273 1021,575.9473 C1061.6,653.5573 1056.75,693.0573 1021,773.0173 C1010.33,796.8773 997.1182,814.0154 977.8682,831.9654" fill="none" id="TableRequest-to-GeographyLevel" style="stroke:#000000;stroke-width:1;stroke-dasharray:7,7;"/><polygon fill="#000000" points="973.48,836.0573,982.7903,832.845,977.1369,832.6474,977.3344,826.994,973.48,836.0573" style="stroke:#000000;stroke-width:1;"/><text fill="#000000" font-family="Verdana" font-size="13" lengthAdjust="spacing" textLength="125.9502" x="1017.38" y="565.0171">optional geography</text></g><!--link TableRequest to State--><g class="link" data-entity-1="ent0021" data-entity-2="ent0013" data-link-type="dependency" data-source-line="116" id="lnk25"><path codeLine="116" d="M274.2,191.2773 C552.76,204.7573 1207,256.6673 1207,446.8973 C1207,446.8973 1207,446.8973 1207,902.0573 C1207,1005.6873 1093.1652,1060.9124 1003.0252,1089.1724" fill="none" id="TableRequest-to-State" style="stroke:#000000;stroke-width:1;stroke-dasharray:7,7;"/><polygon fill="#000000" points="997.3,1090.9673,1007.0845,1092.0917,1002.071,1089.4715,1004.6912,1084.4581,997.3,1090.9673" style="stroke:#000000;stroke-width:1;"/><text fill="#000000" font-family="Verdana" font-size="13" lengthAdjust="spacing" textLength="118.8599" x="1208" y="681.5471">optional geo_filter</text></g><!--link TreeExtractor to JSONCache--><g class="link" data-entity-1="ent0027" data-entity-2="ent0029" data-link-type="dependency" data-source-line="148" id="lnk30"><path codeLine="148" d="M1549,250.7573 C1549,293.9273 1549,344.3273 1549,385.5673" fill="none" id="TreeExtractor-to-JSONCache" style="stroke:#000000;stroke-width:1;"/><polygon fill="#000000" points="1549,391.5673,1553,382.5673,1549,386.5673,1545,382.5673,1549,391.5673" style="stroke:#000000;stroke-width:1;"/><text fill="#000000" font-family="Verdana" font-size="13" lengthAdjust="spacing" textLength="39.3936" x="1550" y="319.9271">writes</text></g><!--link JSONCache to DictionaryDB--><g class="link" data-entity-1="ent0029" data-entity-2="ent0028" data-link-type="dependency" data-source-line="149" id="lnk31"><path codeLine="149" d="M1549,504.2073 C1549,533.8773 1549,564.8073 1549,596.7273" fill="none" id="JSONCache-to-DictionaryDB" style="stroke:#000000;stroke-width:1;"/><polygon fill="#000000" points="1549,602.7273,1553,593.7273,1549,597.7273,1545,593.7273,1549,602.7273" style="stroke:#000000;stroke-width:1;"/><text fill="#000000" font-family="Verdana" font-size="13" lengthAdjust="spacing" textLength="35.9722" x="1550" y="565.0171">reads</text></g><?plantuml-src ZLPjRzis4FxkNt4pCC1fRDLEcXGprW2kyx8LJfn6HJjiA0nQEjjSQKcZg2HQr_tstL6KB3dAq7o8RVBkUFVSynpvWzdW5Y5HGaQTz8kC4g755jAD2EC76QrX9LIAjPr415_46dsJAmIDWH7HMc6dOwIXXSbR7pw8fSAtcLGXQXZ0kJ02VAEpm6GQGKGXdCTREWwkun1Lf-CYGlU9Ss7NXQ-T3a2WH9hQQ2aQMWBwEum49J-6rEZYznhZjHR9Hc9AoqgcvW_Q-rnifjbsAtHUinyCxCSKepHB8InYfx0HzmYdmqCem-LWyWHJQtmJHuDMXoY6sl7MTdGy0XCReNQcL7T0trMypf1ilkrA-oYqvEglT9mbPO5AB57LAqo4sJoju1U9MkXW8mCwYqt6qBqL6YC3Pp3T49pqEKEnwbhpSqmeYgRM4Kuh7MzXI7d2AIYyHrNaVjf_VNe4Qquc1H7ec58KQbT9U_9btW7rjfxsVXqbycmcKvZCPeFfvDRlmyzlO3I4O2DqaGPwQm_yYzzk-p2vkk3_DrFx_tT_EhSMFnrx9pz2l89xbyEk7vo5jJa-xGz79wuNbLspXAamk8w97r__DsL6aKAeZA6BDLXa1aOiCoMCZADTrjrheR3RX-ubRjstuU0Lv4Yr5Nqu7htk7xr-vV8AYWHAyboBHtZLFpawWOIqK2PTvbmAeJlgmel1W3uzxqLtZqHZGY0ofA4KpiYdkVcCvtDE-_OLN6E2cqs_rQJi179LwQT5ojMcJrE4W6l17Tv0jpIpr9vefBDwdkSTTEjDcKSgPsdj2xCt6Z4pI8S7riv7dc862z9hN5FJT8CG0B-691kvaXZ2CWUnJ34AaAC46mo-BEF7VU9KXSnOFS-C9fTeGOmxtCO68oHdMr5H2_65Il0DqIWrLRcxsUciPZ5lNSNtgACjAzo1SZGy6ZbKU7Q572GAJCiGg-NEf-7tf7o33-376OsDJyJbCkEFCZ34MC7SVfyXeQzem1URRluuCX65MIs2Sss7JmQstEzGNugABnucvPvcYbolA8wX0_qyZ32lmFsJpfzAmtS3TNEIKMYXAFTd9JNqFFgwprEoV4BTFMqq6L5tA2YoPswRG5P5Cvw9LS3JK9czBE4E_w9PPA1tbn5ljtZWL8PHjeN98qtN0jAx-QTYvivdzlFJvFBYhjaA6x2CvnhXj5GVvZf-QBbUWrYrh3w85UgMzHqh2wN_mnShLdkBbLJSmYURZWU7T1KjAjts3fuUK6uknACp28ciRD2tg7mkIsyKFHYSLJmOqu2Wv5d-AOy2baURlSLu30IWNDFGt5r39jutzxopVIwC8KwOGwJf2fCsju8SJMk7KeCKzhrrAnDK9Bh6mFsW4IyUYVIisRAzM2miN9iNXenw2KNgstePDuS7kpTzk0VbgBK-LHjgBf_hRRjL8d_GShqni6GMKOT5PkXkg6xETpwSpw_17S7QkfS2EBY7VEiI2BrYba-rI3Vy1EL9cCE3fDdqpf_Vq4oWITqazhcqiUZrT_wsh7p9hyn5kEnP-qKeYHZXSi6lfmFtO4H-K_NSOX-e6JglQcGwLMIk0DnPb_2ntSwiOiTYcI_uVR9pu5yjqHrq_lkP908SmkK7_mHMcL83GoX1aMHvSsqJlbWCmMBBA-wv5a0Og2albsYuT-M_BpqxM9V54_mbfx6m_Y_hoV33rc9D17IZTnwXVQWu7EpQ9Uqo3AHY4T7a_Plkr7AUE3KL4cmmapMrosyCH1XZ3zajMfdMUyfQ5M5AIlWF?></g></svg>