<?plantuml 1.2026.2?><svg xmlns="http://www.w3.org/2000/svg" xmlns:xlink="http://www.w3.org/1999/xlink" contentStyleType="text/css" data-diagram-type="CLASS" height="1015px" preserveAspectRatio="none" style="width:1063px;height:1015px;background:#FFFFFF;" version="1.1" viewBox="0 0 1063 1015" width="1063px" zoomAndPan="magnify"><title>ABS TableBuilder Dictionary Database - ER Diagram</title><defs/><g><g class="title" data-source-line="6"><text fill="#000000" font-family="Verdana" font-size="22" font-weight="bold" lengthAdjust="spacing" textLength="640.1592" x="207.0464" y="37.1182">ABS TableBuilder Dictionary Database - ER Diagram</text></g><!--class ds--><g class="entity" data-qualified-name="ds" data-source-line="8" id="ent0002"><rect fill="#FFFFFF" height="112.0586" rx="2.5" ry="2.5" style="stroke:#000000;stroke-width:1;" width="199.9912" x="603.75" y="59.7373"/><ellipse cx="670.2456" cy="73.7373" fill="#FFFFFF" rx="9" ry="9" style="stroke:#000000;stroke-width:1;"/><path d="M673.8599,80.2373 L666.1401,80.2373 L666.1401,67.8442 L673.8599,67.8442 L673.8599,70.0024 L668.5889,70.0024 L668.5889,72.6753 L673.3618,72.6753 L673.3618,74.8335 L668.5889,74.8335 L668.5889,78.0791 L673.8599,78.0791 Z " fill="#000000"/><text fill="#000000" font-family="Verdana" font-size="14" lengthAdjust="spacing" textLength="59.5" x="687.7456" y="79.3052">datasets</text><line style="stroke:#000000;stroke-width:1;" x1="604.75" x2="802.7412" y1="87.7373" y2="87.7373"/><g data-visibility-modifier="IE_MANDATORY"><ellipse cx="614.75" cy="101.7446" fill="#FFFFFF" rx="3" ry="3" style="stroke:#000000;stroke-width:1;"/></g><text fill="#000000" font-family="Verdana" font-size="14" font-weight="bold" lengthAdjust="spacing" textLength="14.5742" x="621.75" y="105.8125">id</text><text fill="#000000" font-family="Verdana" font-size="14" lengthAdjust="spacing" textLength="115.6777" x="641.2461" y="105.8125">: INTEGER &#171;PK&#187;</text><line style="stroke:#000000;stroke-width:1;" x1="604.75" x2="802.7412" y1="112.752" y2="112.752"/><g data-visibility-modifier="IE_MANDATORY"><ellipse cx="614.75" cy="126.7593" fill="#FFFFFF" rx="3" ry="3" style="stroke:#000000;stroke-width:1;"/></g><text fill="#000000" font-family="Verdana" font-size="14" lengthAdjust="spacing" textLength="170.8232" x="621.75" y="130.8271">name : TEXT &#171;UNIQUE&#187;</text><text fill="#000000" font-family="Verdana" font-size="14" lengthAdjust="spacing" textLength="175.9912" x="621.75" y="147.8418">geographies_json : TEXT</text><text fill="#000000" font-family="Verdana" font-size="14" lengthAdjust="spacing" textLength="117.9541" x="621.75" y="164.8564">summary : TEXT</text></g><g class="entity" data-qualified-name="GMN3" data-source-line="16" id="ent0004"><path d="M839.23,89.5673 L839.23,112.0373 L804.05,116.0373 L839.23,120.0373 L839.23,141.9653 A2.5,2.5 0 0 0 841.73,144.4653 L1053.752,144.4653 A2.5,2.5 0 0 0 1056.252,141.9653 L1056.252,97.0673 L1046.252,87.0673 L841.73,87.0673 A2.5,2.5 0 0 0 839.23,89.5673" fill="#FFFFFF" style="stroke:#000000;stroke-width:1;"/><path d="M1046.252,87.0673 L1046.252,95.8173 A1.25,1.25 0 0 0 1047.502,97.0673 L1056.252,97.0673 L1046.252,87.0673" fill="#FFFFFF" style="stroke:#000000;stroke-width:1;"/><text fill="#000000" font-family="Verdana" font-size="13" lengthAdjust="spacing" textLength="84.6143" x="845.23" y="105.1371">131 datasets</text><text fill="#000000" font-family="Verdana" font-size="13" lengthAdjust="spacing" textLength="196.022" x="845.23" y="120.9364">11 with geographies (Census)</text><text fill="#000000" font-family="Verdana" font-size="13" lengthAdjust="spacing" textLength="186.9893" x="845.23" y="136.7358">Avg 51.6 groups per dataset</text></g><!--class gr--><g class="entity" data-qualified-name="gr" data-source-line="21" id="ent0006"><rect fill="#FFFFFF" height="112.0586" rx="2.5" ry="2.5" style="stroke:#000000;stroke-width:1;" width="217.874" x="122.81" y="231.7873"/><ellipse cx="203.9619" cy="245.7873" fill="#FFFFFF" rx="9" ry="9" style="stroke:#000000;stroke-width:1;"/><path d="M207.5761,252.2873 L199.8564,252.2873 L199.8564,239.8942 L207.5761,239.8942 L207.5761,242.0524 L202.3051,242.0524 L202.3051,244.7253 L207.0781,244.7253 L207.0781,246.8835 L202.3051,246.8835 L202.3051,250.1291 L207.5761,250.1291 Z " fill="#000000"/><text fill="#000000" font-family="Verdana" font-size="14" lengthAdjust="spacing" textLength="48.0703" x="221.4619" y="251.3552">groups</text><line style="stroke:#000000;stroke-width:1;" x1="123.81" x2="339.684" y1="259.7873" y2="259.7873"/><g data-visibility-modifier="IE_MANDATORY"><ellipse cx="133.81" cy="273.7946" fill="#FFFFFF" rx="3" ry="3" style="stroke:#000000;stroke-width:1;"/></g><text fill="#000000" font-family="Verdana" font-size="14" font-weight="bold" lengthAdjust="spacing" textLength="14.5742" x="140.81" y="277.8625">id</text><text fill="#000000" font-family="Verdana" font-size="14" lengthAdjust="spacing" textLength="115.6777" x="160.3061" y="277.8625">: INTEGER &#171;PK&#187;</text><line style="stroke:#000000;stroke-width:1;" x1="123.81" x2="339.684" y1="284.802" y2="284.802"/><g data-visibility-modifier="IE_MANDATORY"><ellipse cx="133.81" cy="298.8093" fill="#FFFFFF" rx="3" ry="3" style="stroke:#000000;stroke-width:1;"/></g><text fill="#000000" font-family="Verdana" font-size="14" lengthAdjust="spacing" textLength="193.874" x="140.81" y="302.8771">dataset_id : INTEGER &#171;FK&#187;</text><g data-visibility-modifier="IE_MANDATORY"><ellipse cx="133.81" cy="315.8239" fill="#FFFFFF" rx="3" ry="3" style="stroke:#000000;stroke-width:1;"/></g><text fill="#000000" font-family="Verdana" font-size="14" lengthAdjust="spacing" textLength="85.0527" x="140.81" y="319.8918">label : TEXT</text><g data-visibility-modifier="IE_MANDATORY"><ellipse cx="133.81" cy="332.8386" fill="#FFFFFF" rx="3" ry="3" style="stroke:#000000;stroke-width:1;"/></g><text fill="#000000" font-family="Verdana" font-size="14" lengthAdjust="spacing" textLength="83.4053" x="140.81" y="336.9064">path : TEXT</text></g><g class="entity" data-qualified-name="GMN7" data-source-line="29" id="ent0008"><path d="M375.91,253.7273 L375.91,284.0373 L341.16,288.0373 L375.91,292.0373 L375.91,321.9246 A2.5,2.5 0 0 0 378.41,324.4246 L601.0706,324.4246 A2.5,2.5 0 0 0 603.5706,321.9246 L603.5706,261.2273 L593.5706,251.2273 L378.41,251.2273 A2.5,2.5 0 0 0 375.91,253.7273" fill="#FFFFFF" style="stroke:#000000;stroke-width:1;"/><path d="M593.5706,251.2273 L593.5706,259.9773 A1.25,1.25 0 0 0 594.8206,261.2273 L603.5706,261.2273 L593.5706,251.2273" fill="#FFFFFF" style="stroke:#000000;stroke-width:1;"/><text fill="#000000" font-family="Verdana" font-size="13" lengthAdjust="spacing" textLength="86.9946" x="381.91" y="269.2971">6,762 groups</text><text fill="#000000" font-family="Verdana" font-size="13" lengthAdjust="spacing" textLength="107.8721" x="381.91" y="285.0964">Depth 0-6 levels</text><text fill="#000000" font-family="Verdana" font-size="13" lengthAdjust="spacing" textLength="166.2769" x="381.91" y="300.8958">Path uses " &gt; " separator</text><text fill="#000000" font-family="Verdana" font-size="13" lengthAdjust="spacing" textLength="206.6606" x="381.91" y="316.6951">e.g. "Age and Sex &gt; SEXP Sex"</text></g><!--class va--><g class="entity" data-qualified-name="va" data-source-line="35" id="ent0010"><rect fill="#FFFFFF" height="112.0586" rx="2.5" ry="2.5" style="stroke:#000000;stroke-width:1;" width="206.4443" x="86.52" y="403.8473"/><ellipse cx="154.4341" cy="417.8473" fill="#FFFFFF" rx="9" ry="9" style="stroke:#000000;stroke-width:1;"/><path d="M158.0483,424.3473 L150.3286,424.3473 L150.3286,411.9542 L158.0483,411.9542 L158.0483,414.1124 L152.7773,414.1124 L152.7773,416.7853 L157.5503,416.7853 L157.5503,418.9435 L152.7773,418.9435 L152.7773,422.1891 L158.0483,422.1891 Z " fill="#000000"/><text fill="#000000" font-family="Verdana" font-size="14" lengthAdjust="spacing" textLength="63.1162" x="171.9341" y="423.4152">variables</text><line style="stroke:#000000;stroke-width:1;" x1="87.52" x2="291.9643" y1="431.8473" y2="431.8473"/><g data-visibility-modifier="IE_MANDATORY"><ellipse cx="97.52" cy="445.8546" fill="#FFFFFF" rx="3" ry="3" style="stroke:#000000;stroke-width:1;"/></g><text fill="#000000" font-family="Verdana" font-size="14" font-weight="bold" lengthAdjust="spacing" textLength="14.5742" x="104.52" y="449.9225">id</text><text fill="#000000" font-family="Verdana" font-size="14" lengthAdjust="spacing" textLength="115.6777" x="124.0161" y="449.9225">: INTEGER &#171;PK&#187;</text><line style="stroke:#000000;stroke-width:1;" x1="87.52" x2="291.9643" y1="456.862" y2="456.862"/><g data-visibility-modifier="IE_MANDATORY"><ellipse cx="97.52" cy="470.8693" fill="#FFFFFF" rx="3" ry="3" style="stroke:#000000;stroke-width:1;"/></g><text fill="#000000" font-family="Verdana" font-size="14" lengthAdjust="spacing" textLength="182.4443" x="104.52" y="474.9371">group_id : INTEGER &#171;FK&#187;</text><text fill="#000000" font-family="Verdana" font-size="14" lengthAdjust="spacing" textLength="84.752" x="104.52" y="491.9518">code : TEXT</text><g data-visibility-modifier="IE_MANDATORY"><ellipse cx="97.52" cy="504.8986" fill="#FFFFFF" rx="3" ry="3" style="stroke:#000000;stroke-width:1;"/></g><text fill="#000000" font-family="Verdana" font-size="14" lengthAdjust="spacing" textLength="85.0527" x="104.52" y="508.9664">label : TEXT</text></g><g class="entity" data-qualified-name="GMN11" data-source-line="43" id="ent0012"><path d="M327.55,425.7773 L327.55,456.0373 L293.31,460.0373 L327.55,464.0373 L327.55,493.9746 A2.5,2.5 0 0 0 330.05,496.4746 L509.4387,496.4746 A2.5,2.5 0 0 0 511.9387,493.9746 L511.9387,433.2773 L501.9387,423.2773 L330.05,423.2773 A2.5,2.5 0 0 0 327.55,425.7773" fill="#FFFFFF" style="stroke:#000000;stroke-width:1;"/><path d="M501.9387,423.2773 L501.9387,432.0273 A1.25,1.25 0 0 0 503.1887,433.2773 L511.9387,433.2773 L501.9387,423.2773" fill="#FFFFFF" style="stroke:#000000;stroke-width:1;"/><text fill="#000000" font-family="Verdana" font-size="13" lengthAdjust="spacing" textLength="109.2305" x="333.55" y="441.3471">36,015 variables</text><text fill="#000000" font-family="Verdana" font-size="13" lengthAdjust="spacing" textLength="163.3887" x="333.55" y="457.1464">2,330 with codes (6.5%)</text><text fill="#000000" font-family="Verdana" font-size="13" lengthAdjust="spacing" textLength="141.2671" x="333.55" y="472.9458">33,685 without codes</text><text fill="#000000" font-family="Verdana" font-size="13" lengthAdjust="spacing" textLength="118.9043" x="333.55" y="488.7451">Avg 5.3 per group</text></g><!--class ca--><g class="entity" data-qualified-name="ca" data-source-line="49" id="ent0014"><rect fill="#FFFFFF" height="95.0439" rx="2.5" ry="2.5" style="stroke:#000000;stroke-width:1;" width="221.4902" x="12" y="575.9073"/><ellipse cx="82.8809" cy="589.9073" fill="#FFFFFF" rx="9" ry="9" style="stroke:#000000;stroke-width:1;"/><path d="M86.4951,596.4073 L78.7754,596.4073 L78.7754,584.0142 L86.4951,584.0142 L86.4951,586.1724 L81.2241,586.1724 L81.2241,588.8453 L85.9971,588.8453 L85.9971,591.0035 L81.2241,591.0035 L81.2241,594.2491 L86.4951,594.2491 Z " fill="#000000"/><text fill="#000000" font-family="Verdana" font-size="14" lengthAdjust="spacing" textLength="72.2285" x="100.3809" y="595.4752">categories</text><line style="stroke:#000000;stroke-width:1;" x1="13" x2="232.4902" y1="603.9073" y2="603.9073"/><g data-visibility-modifier="IE_MANDATORY"><ellipse cx="23" cy="617.9146" fill="#FFFFFF" rx="3" ry="3" style="stroke:#000000;stroke-width:1;"/></g><text fill="#000000" font-family="Verdana" font-size="14" font-weight="bold" lengthAdjust="spacing" textLength="14.5742" x="30" y="621.9825">id</text><text fill="#000000" font-family="Verdana" font-size="14" lengthAdjust="spacing" textLength="115.6777" x="49.4961" y="621.9825">: INTEGER &#171;PK&#187;</text><line style="stroke:#000000;stroke-width:1;" x1="13" x2="232.4902" y1="628.922" y2="628.922"/><g data-visibility-modifier="IE_MANDATORY"><ellipse cx="23" cy="642.9293" fill="#FFFFFF" rx="3" ry="3" style="stroke:#000000;stroke-width:1;"/></g><text fill="#000000" font-family="Verdana" font-size="14" lengthAdjust="spacing" textLength="197.4902" x="30" y="646.9971">variable_id : INTEGER &#171;FK&#187;</text><g data-visibility-modifier="IE_MANDATORY"><ellipse cx="23" cy="659.9439" fill="#FFFFFF" rx="3" ry="3" style="stroke:#000000;stroke-width:1;"/></g><text fill="#000000" font-family="Verdana" font-size="14" lengthAdjust="spacing" textLength="85.0527" x="30" y="664.0118">label : TEXT</text></g><g class="entity" data-qualified-name="GMN15" data-source-line="56" id="ent0016"><path d="M268.65,597.2273 L268.65,619.0373 L233.99,623.0373 L268.65,627.0373 L268.65,649.6253 A2.5,2.5 0 0 0 271.15,652.1253 L438.3321,652.1253 A2.5,2.5 0 0 0 440.8321,649.6253 L440.8321,604.7273 L430.8321,594.7273 L271.15,594.7273 A2.5,2.5 0 0 0 268.65,597.2273" fill="#FFFFFF" style="stroke:#000000;stroke-width:1;"/><path d="M430.8321,594.7273 L430.8321,603.4773 A1.25,1.25 0 0 0 432.0821,604.7273 L440.8321,604.7273 L430.8321,594.7273" fill="#FFFFFF" style="stroke:#000000;stroke-width:1;"/><text fill="#000000" font-family="Verdana" font-size="13" lengthAdjust="spacing" textLength="125.9565" x="274.65" y="612.7971">317,274 categories</text><text fill="#000000" font-family="Verdana" font-size="13" lengthAdjust="spacing" textLength="132.8755" x="274.65" y="628.5964">Avg 8.8 per variable</text><text fill="#000000" font-family="Verdana" font-size="13" lengthAdjust="spacing" textLength="151.1821" x="274.65" y="644.3958">Max 4,525 per variable</text></g><!--class dfts--><g class="entity" data-qualified-name="dfts" data-source-line="61" id="ent0018"><rect fill="#FFFFFF" height="91.6279" rx="2.5" ry="2.5" style="stroke:#000000;stroke-width:1;" width="129.9541" x="638.77" y="242.0073"/><ellipse cx="658.8896" cy="262.8066" fill="#FFFFFF" rx="9" ry="9" style="stroke:#000000;stroke-width:1;"/><path d="M662.5038,269.3066 L654.7841,269.3066 L654.7841,256.9136 L662.5038,256.9136 L662.5038,259.0718 L657.2328,259.0718 L657.2328,261.7446 L662.0058,261.7446 L662.0058,263.9028 L657.2328,263.9028 L657.2328,267.1484 L662.5038,267.1484 Z " fill="#000000"/><text fill="#000000" font-family="Verdana" font-size="12" font-style="italic" lengthAdjust="spacing" textLength="45.5918" x="692.7422" y="259.0718">&#171;FTS5&#187;</text><text fill="#000000" font-family="Verdana" font-size="14" lengthAdjust="spacing" textLength="86.1328" x="672.4717" y="275.6665">datasets_fts</text><line style="stroke:#000000;stroke-width:1;" x1="639.77" x2="767.7241" y1="283.6059" y2="283.6059"/><text fill="#000000" font-family="Verdana" font-size="14" lengthAdjust="spacing" textLength="91.123" x="644.77" y="301.6811">name : TEXT</text><text fill="#000000" font-family="Verdana" font-size="14" lengthAdjust="spacing" textLength="117.9541" x="644.77" y="318.6958">summary : TEXT</text><line style="stroke:#000000;stroke-width:1;" x1="639.77" x2="767.7241" y1="325.6352" y2="325.6352"/></g><g class="entity" data-qualified-name="GMN19" data-source-line="66" id="ent0020"><path d="M617.54,441.5773 L617.54,478.1759 A2.5,2.5 0 0 0 620.04,480.6759 L773.4477,480.6759 A2.5,2.5 0 0 0 775.9477,478.1759 L775.9477,449.0773 L765.9477,439.0773 L707.75,439.0773 L703.75,333.9273 L699.75,439.0773 L620.04,439.0773 A2.5,2.5 0 0 0 617.54,441.5773" fill="#FFFFFF" style="stroke:#000000;stroke-width:1;"/><path d="M765.9477,439.0773 L765.9477,447.8273 A1.25,1.25 0 0 0 767.1977,449.0773 L775.9477,449.0773 L765.9477,439.0773" fill="#FFFFFF" style="stroke:#000000;stroke-width:1;"/><text fill="#000000" font-family="Verdana" font-size="13" lengthAdjust="spacing" textLength="101.8608" x="623.54" y="457.1471">Full-text search</text><text fill="#000000" font-family="Verdana" font-size="13" lengthAdjust="spacing" textLength="137.4077" x="623.54" y="472.9464">for dataset discovery</text></g><!--class vfts--><g class="entity" data-qualified-name="vfts" data-source-line="70" id="ent0022"><rect fill="#FFFFFF" height="159.6865" rx="2.5" ry="2.5" style="stroke:#000000;stroke-width:1;" width="172.6855" x="442.4" y="730.9573"/><ellipse cx="480.1214" cy="751.7566" fill="#FFFFFF" rx="9" ry="9" style="stroke:#000000;stroke-width:1;"/><path d="M483.7357,758.2566 L476.016,758.2566 L476.016,745.8636 L483.7357,745.8636 L483.7357,748.0218 L478.4647,748.0218 L478.4647,750.6946 L483.2376,750.6946 L483.2376,752.8528 L478.4647,752.8528 L478.4647,756.0984 L483.7357,756.0984 Z " fill="#000000"/><text fill="#000000" font-family="Verdana" font-size="12" font-style="italic" lengthAdjust="spacing" textLength="45.5918" x="519.6937" y="748.0218">&#171;FTS5&#187;</text><text fill="#000000" font-family="Verdana" font-size="14" lengthAdjust="spacing" textLength="89.749" x="497.6151" y="764.6165">variables_fts</text><line style="stroke:#000000;stroke-width:1;" x1="443.4" x2="614.0855" y1="772.5559" y2="772.5559"/><text fill="#000000" font-family="Verdana" font-size="14" lengthAdjust="spacing" textLength="152.2295" x="448.4" y="790.6311">dataset_name : TEXT</text><text fill="#000000" font-family="Verdana" font-size="14" lengthAdjust="spacing" textLength="133.082" x="448.4" y="807.6458">group_path : TEXT</text><text fill="#000000" font-family="Verdana" font-size="14" lengthAdjust="spacing" textLength="84.752" x="448.4" y="824.6604">code : TEXT</text><text fill="#000000" font-family="Verdana" font-size="14" lengthAdjust="spacing" textLength="85.0527" x="448.4" y="841.6751">label : TEXT</text><text fill="#000000" font-family="Verdana" font-size="14" lengthAdjust="spacing" textLength="160.6855" x="448.4" y="858.6897">categories_text : TEXT</text><text fill="#000000" font-family="Verdana" font-size="14" lengthAdjust="spacing" textLength="117.9541" x="448.4" y="875.7044">summary : TEXT</text><line style="stroke:#000000;stroke-width:1;" x1="443.4" x2="614.0855" y1="882.6438" y2="882.6438"/></g><g class="entity" data-qualified-name="GMN23" data-source-line="79" id="ent0024"><path d="M420.86,953.1373 L420.86,1005.5353 A2.5,2.5 0 0 0 423.36,1008.0353 L634.1315,1008.0353 A2.5,2.5 0 0 0 636.6315,1005.5353 L636.6315,960.6373 L626.6315,950.6373 L532.75,950.6373 L528.75,891.1173 L524.75,950.6373 L423.36,950.6373 A2.5,2.5 0 0 0 420.86,953.1373" fill="#FFFFFF" style="stroke:#000000;stroke-width:1;"/><path d="M626.6315,950.6373 L626.6315,959.3873 A1.25,1.25 0 0 0 627.8815,960.6373 L636.6315,960.6373 L626.6315,950.6373" fill="#FFFFFF" style="stroke:#000000;stroke-width:1;"/><text fill="#000000" font-family="Verdana" font-size="13" lengthAdjust="spacing" textLength="126.8896" x="426.86" y="968.7071">Denormalized FTS5</text><text fill="#000000" font-family="Verdana" font-size="13" lengthAdjust="spacing" textLength="121.856" x="426.86" y="984.5064">for variable search</text><text fill="#000000" font-family="Verdana" font-size="13" lengthAdjust="spacing" textLength="194.7715" x="426.86" y="1000.3058">Categories joined as CSV text</text></g><!--link ds to gr--><g class="link" data-entity-1="ent0002" data-entity-2="ent0006" data-link-type="crowfoot" data-source-line="84" id="lnk26"><path codeLine="84" d="M607.53,180.1373 C607.53,211.8073 607.53,237.0373 607.53,237.0373 C607.53,237.0373 469.89,237.0373 358.94,237.0373" fill="none" id="ds-gr" style="stroke:#000000;stroke-width:1;"/><line style="stroke:#000000;stroke-width:1;" x1="603.53" x2="611.53" y1="176.1373" y2="176.1373"/><line style="stroke:#000000;stroke-width:1;" x1="603.53" x2="611.53" y1="179.1373" y2="179.1373"/><line style="stroke:#000000;stroke-width:1;" x1="607.53" x2="607.53" y1="180.1373" y2="172.1373"/><line style="stroke:#000000;stroke-width:1;" x1="348.94" x2="340.94" y1="237.0373" y2="243.0373"/><line style="stroke:#000000;stroke-width:1;" x1="348.94" x2="340.94" y1="237.0373" y2="231.0373"/><line style="stroke:#000000;stroke-width:1;" x1="348.94" x2="340.94" y1="237.0373" y2="237.0373"/><ellipse cx="354.94" cy="237.0373" fill="none" rx="4" ry="4" style="stroke:#000000;stroke-width:1;"/><text fill="#000000" font-family="Verdana" font-size="13" lengthAdjust="spacing" textLength="54.3867" x="451.68" y="234.1071">contains</text></g><!--link gr to va--><g class="link" data-entity-1="ent0006" data-entity-2="ent0010" data-link-type="crowfoot" data-source-line="85" id="lnk27"><path codeLine="85" d="M207.89,352.1573 C207.89,371.1773 207.89,366.3873 207.89,385.4173" fill="none" id="gr-va" style="stroke:#000000;stroke-width:1;"/><line style="stroke:#000000;stroke-width:1;" x1="203.89" x2="211.89" y1="348.1573" y2="348.1573"/><line style="stroke:#000000;stroke-width:1;" x1="203.89" x2="211.89" y1="351.1573" y2="351.1573"/><line style="stroke:#000000;stroke-width:1;" x1="207.89" x2="207.89" y1="352.1573" y2="344.1573"/><line style="stroke:#000000;stroke-width:1;" x1="207.89" x2="213.89" y1="395.4173" y2="403.4173"/><line style="stroke:#000000;stroke-width:1;" x1="207.89" x2="201.89" y1="395.4173" y2="403.4173"/><line style="stroke:#000000;stroke-width:1;" x1="207.89" x2="207.89" y1="395.4173" y2="403.4173"/><ellipse cx="207.89" cy="389.4173" fill="none" rx="4" ry="4" style="stroke:#000000;stroke-width:1;"/><text fill="#000000" font-family="Verdana" font-size="13" lengthAdjust="spacing" textLength="54.3867" x="152.89" y="370.8571">contains</text></g><!--link va to ca--><g class="link" data-entity-1="ent0010" data-entity-2="ent0014" data-link-type="crowfoot" data-source-line="86" id="lnk28"><path codeLine="86" d="M160.01,524.1673 C160.01,543.4773 160.01,538.8973 160.01,557.4873" fill="none" id="va-ca" style="stroke:#000000;stroke-width:1;"/><line style="stroke:#000000;stroke-width:1;" x1="156.01" x2="164.01" y1="520.1673" y2="520.1673"/><line style="stroke:#000000;stroke-width:1;" x1="156.01" x2="164.01" y1="523.1673" y2="523.1673"/><line style="stroke:#000000;stroke-width:1;" x1="160.01" x2="160.01" y1="524.1673" y2="516.1673"/><line style="stroke:#000000;stroke-width:1;" x1="160.01" x2="166.01" y1="567.4873" y2="575.4873"/><line style="stroke:#000000;stroke-width:1;" x1="160.01" x2="154.01" y1="567.4873" y2="575.4873"/><line style="stroke:#000000;stroke-width:1;" x1="160.01" x2="160.01" y1="567.4873" y2="575.4873"/><ellipse cx="160.01" cy="561.4873" fill="none" rx="4" ry="4" style="stroke:#000000;stroke-width:1;"/><text fill="#000000" font-family="Verdana" font-size="13" lengthAdjust="spacing" textLength="22.8071" x="137.01" y="542.8971">has</text></g><!--link ds to dfts--><g class="link" data-entity-1="ent0002" data-entity-2="ent0018" data-link-type="dependency" data-source-line="88" id="lnk29"><path codeLine="88" d="M703.75,172.0973 C703.75,194.6473 703.75,214.2873 703.75,235.6873" fill="none" id="ds-to-dfts" style="stroke:#000000;stroke-width:1;stroke-dasharray:7,7;"/><polygon fill="#000000" points="703.75,241.6873,707.75,232.6873,703.75,236.6873,699.75,232.6873,703.75,241.6873" style="stroke:#000000;stroke-width:1;"/><text fill="#000000" font-family="Verdana" font-size="13" lengthAdjust="spacing" textLength="63.3306" x="639.75" y="203.9671">populates</text></g><!--link ds to vfts--><g class="link" data-entity-1="ent0002" data-entity-2="ent0022" data-link-type="dependency" data-source-line="89" id="lnk30"><path codeLine="89" d="M611.31,172.0473 C611.31,295.0973 611.31,582.3773 611.31,724.6473" fill="none" id="ds-to-vfts" style="stroke:#000000;stroke-width:1;stroke-dasharray:7,7;"/><polygon fill="#000000" points="611.31,730.6473,615.31,721.6473,611.31,725.6473,607.31,721.6473,611.31,730.6473" style="stroke:#000000;stroke-width:1;"/><text fill="#000000" font-family="Verdana" font-size="13" lengthAdjust="spacing" textLength="63.3306" x="529.4326" y="432.4171">populates</text><text fill="#000000" font-family="Verdana" font-size="13" lengthAdjust="spacing" textLength="99.5757" x="511.31" y="448.2164">(denormalized)</text></g><!--link gr to vfts--><g class="link" data-entity-1="ent0006" data-entity-2="ent0022" data-link-type="dependency" data-source-line="90" id="lnk31"><path codeLine="90" d="M340.76,339.0373 C435.53,339.0373 557.76,339.0373 557.76,339.0373 C557.76,339.0373 557.76,589.8373 557.76,724.4973" fill="none" id="gr-to-vfts" style="stroke:#000000;stroke-width:1;stroke-dasharray:7,7;"/><polygon fill="#000000" points="557.76,730.4973,561.76,721.4973,557.76,725.4973,553.76,721.4973,557.76,730.4973" style="stroke:#000000;stroke-width:1;"/></g><!--link va to vfts--><g class="link" data-entity-1="ent0010" data-entity-2="ent0022" data-link-type="dependency" data-source-line="91" id="lnk32"><path codeLine="91" d="M293.07,506.0373 C379.5,506.0373 488.76,506.0373 488.76,506.0373 C488.76,506.0373 488.76,634.4273 488.76,724.7273" fill="none" id="va-to-vfts" style="stroke:#000000;stroke-width:1;stroke-dasharray:7,7;"/><polygon fill="#000000" points="488.76,730.7273,492.76,721.7273,488.76,725.7273,484.76,721.7273,488.76,730.7273" style="stroke:#000000;stroke-width:1;"/></g><!--link ca to vfts--><g class="link" data-entity-1="ent0014" data-entity-2="ent0022" data-link-type="dependency" data-source-line="92" id="lnk33"><path codeLine="92" d="M233.58,662.0373 C333.75,662.0373 465.58,662.0373 465.58,662.0373 C465.58,662.0373 465.58,689.5473 465.58,724.7573" fill="none" id="ca-to-vfts" style="stroke:#000000;stroke-width:1;stroke-dasharray:7,7;"/><polygon fill="#000000" points="465.58,730.7573,469.58,721.7573,465.58,725.7573,461.58,721.7573,465.58,730.7573" style="stroke:#000000;stroke-width:1;"/></g><?plantuml-src ZPHXJzim48Q_vrVSAas2gereIm92g1BGCg5fYArbuiEaoaskYLbgHx4Jw63_VMSdQTC2Kpz4Skuz-zx7zlcJZd69a2QC2qVzvY9b6Lj2mWNgLOeWCntBXf39N8I1p0Hcu3NYAcQXVE8YWWLB53gEvZf1kBYSm9JD4xpCUHBId14FD9U2PIiOCStcJ25qOVo311RHGew3WgQke1MIh52h5Z05eO8N1w0DxJOFssquWvlRwVWBpJi_l_iw79BMxTe4mGZd3ARZXobfzxStt-_7LezGKe4qvgXcZqgAAeaKbI-Nnb0L-Ei8gH4o7iKQv89gKqvlq8FQaVdjmHFNSNDHEBX2eN9rIF954O7NSts8QBzI1IcHLxE9BmHJO4DQ9bdEADkNirfkniEjfEiogGq9csEoOMn3oiZl1uXHHYb-vyJlLuxfTuGfJJZg-f1WWOa9tPabSaMiBHZIfz0SlfPcDhgH2wsB284Hu0IVAMCoVhWpmzOxq0NBkBaO9NV1zkMs_ZwW3cI8JUIjFTXbBXZb3FpEKS-3jHaAzJk3mL5vkcOzEbVVzJwRKnqCElwfPoMPwrAj3ziTs4EsxjwX3PZ6I6QymWtsngsTxNVEkuo1PUoTTFednx3nK9a-TK-jwRe6XR-nPpZkU7rlMtWBLFV2R55tA0sCh-d46mujNQCJFsookTHQBcsNBMnZNUT9qjNuhEboiIo8ARIGw-Q1aAj05fYj_dUZrfwADvxghjdsLjwfPeFitgMTRjfivSnwtPkoA2b7A6IsP0d_Wo4OUnLcZR21lrfNWaT9Zt9ekAucFy7KRMm2FP2lhzskV35Fo1bTE2aqFUcgvT1_fL2JRIdqNoc1LM96GREIwmxBywHWAjCy8HCaLKgng_mI1s43wD3Mh3DDbVKuQ8p_0G00?></g></svg>